G04 #@! TF.GenerationSoftware,KiCad,Pcbnew,(5.1.2)-1*
G04 #@! TF.CreationDate,2019-06-25T19:28:50+03:00*
G04 #@! TF.ProjectId,de0-nano-exp2,6465302d-6e61-46e6-9f2d-657870322e6b,rev?*
G04 #@! TF.SameCoordinates,Original*
G04 #@! TF.FileFunction,Paste,Top*
G04 #@! TF.FilePolarity,Positive*
%FSLAX46Y46*%
G04 Gerber Fmt 4.6, Leading zero omitted, Abs format (unit mm)*
G04 Created by KiCad (PCBNEW (5.1.2)-1) date 2019-06-25 19:28:50*
%MOMM*%
%LPD*%
G04 APERTURE LIST*
%ADD10R,2.400000X0.700000*%
%ADD11R,1.400000X2.000000*%
%ADD12R,1.400000X2.400000*%
%ADD13R,2.200000X2.000000*%
%ADD14R,3.000000X2.500000*%
%ADD15R,0.500000X2.300000*%
%ADD16R,1.500000X1.250000*%
%ADD17R,1.250000X1.500000*%
%ADD18R,1.500000X1.300000*%
%ADD19O,0.300000X1.500000*%
%ADD20O,1.500000X0.300000*%
%ADD21R,1.005000X1.005000*%
G04 APERTURE END LIST*
D10*
X145520000Y-93980000D03*
X145520000Y-95080000D03*
X145520000Y-96180000D03*
X145520000Y-92880000D03*
X145520000Y-91780000D03*
X145520000Y-90680000D03*
X145520000Y-88480000D03*
X145520000Y-89580000D03*
X145520000Y-87380000D03*
D11*
X144620000Y-85830000D03*
D12*
X144620000Y-101230000D03*
D13*
X135020000Y-85830000D03*
X135020000Y-102130000D03*
D14*
X155070000Y-68320000D03*
X155070000Y-73820000D03*
X164970000Y-68320000D03*
X164970000Y-73820000D03*
D15*
X158420000Y-73920000D03*
X159220000Y-73920000D03*
X160020000Y-73920000D03*
X160820000Y-73920000D03*
X161620000Y-73920000D03*
D16*
X158536000Y-77978000D03*
X161036000Y-77978000D03*
X157226000Y-83058000D03*
X154726000Y-83058000D03*
X154686000Y-81153000D03*
X157186000Y-81153000D03*
D17*
X148590000Y-92670000D03*
X148590000Y-90170000D03*
D18*
X157306000Y-84963000D03*
X154606000Y-84963000D03*
D19*
X164314000Y-80283000D03*
X163814000Y-80283000D03*
X163314000Y-80283000D03*
X162814000Y-80283000D03*
X162314000Y-80283000D03*
X161814000Y-80283000D03*
X161314000Y-80283000D03*
D20*
X160039000Y-81558000D03*
X160039000Y-82058000D03*
X160039000Y-82558000D03*
X160039000Y-83058000D03*
X160039000Y-83558000D03*
X160039000Y-84058000D03*
X160039000Y-84558000D03*
D19*
X161314000Y-85833000D03*
X161814000Y-85833000D03*
X162314000Y-85833000D03*
X162814000Y-85833000D03*
X163314000Y-85833000D03*
X163814000Y-85833000D03*
X164314000Y-85833000D03*
D20*
X165589000Y-84558000D03*
X165589000Y-84058000D03*
X165589000Y-83558000D03*
X165589000Y-83058000D03*
X165589000Y-82558000D03*
X165589000Y-82058000D03*
X165589000Y-81558000D03*
D21*
X161976500Y-83895500D03*
X163651500Y-83895500D03*
X161976500Y-82220500D03*
X163651500Y-82220500D03*
M02*
