G04 #@! TF.GenerationSoftware,KiCad,Pcbnew,(5.1.2)-1*
G04 #@! TF.CreationDate,2019-08-24T17:39:20+03:00*
G04 #@! TF.ProjectId,de0-nano-exp2,6465302d-6e61-46e6-9f2d-657870322e6b,rev?*
G04 #@! TF.SameCoordinates,Original*
G04 #@! TF.FileFunction,Copper,L2,Bot*
G04 #@! TF.FilePolarity,Positive*
%FSLAX46Y46*%
G04 Gerber Fmt 4.6, Leading zero omitted, Abs format (unit mm)*
G04 Created by KiCad (PCBNEW (5.1.2)-1) date 2019-08-24 17:39:20*
%MOMM*%
%LPD*%
G04 APERTURE LIST*
%ADD10R,1.700000X1.700000*%
%ADD11O,1.700000X1.700000*%
%ADD12R,1.727200X1.727200*%
%ADD13O,1.727200X1.727200*%
%ADD14C,6.000000*%
%ADD15C,0.800000*%
%ADD16C,0.508000*%
%ADD17C,0.254000*%
%ADD18C,0.355600*%
%ADD19C,0.762000*%
G04 APERTURE END LIST*
D10*
X134366000Y-113030000D03*
D11*
X134366000Y-110490000D03*
X134366000Y-107950000D03*
D12*
X142240000Y-111760000D03*
D13*
X142240000Y-109220000D03*
X144780000Y-111760000D03*
X144780000Y-109220000D03*
X147320000Y-111760000D03*
X147320000Y-109220000D03*
X149860000Y-111760000D03*
X149860000Y-109220000D03*
X152400000Y-111760000D03*
X152400000Y-109220000D03*
X154940000Y-111760000D03*
X154940000Y-109220000D03*
X157480000Y-111760000D03*
X157480000Y-109220000D03*
X160020000Y-111760000D03*
X160020000Y-109220000D03*
X162560000Y-111760000D03*
X162560000Y-109220000D03*
X165100000Y-111760000D03*
X165100000Y-109220000D03*
X167640000Y-111760000D03*
X167640000Y-109220000D03*
X170180000Y-111760000D03*
X170180000Y-109220000D03*
X172720000Y-111760000D03*
X172720000Y-109220000D03*
X175260000Y-111760000D03*
X175260000Y-109220000D03*
X177800000Y-111760000D03*
X177800000Y-109220000D03*
X180340000Y-111760000D03*
X180340000Y-109220000D03*
X182880000Y-111760000D03*
X182880000Y-109220000D03*
X185420000Y-111760000D03*
X185420000Y-109220000D03*
X187960000Y-111760000D03*
X187960000Y-109220000D03*
X190500000Y-111760000D03*
X190500000Y-109220000D03*
D10*
X142240000Y-119380000D03*
D11*
X142240000Y-121920000D03*
X144780000Y-119380000D03*
X144780000Y-121920000D03*
X147320000Y-119380000D03*
X147320000Y-121920000D03*
X149860000Y-119380000D03*
X149860000Y-121920000D03*
X152400000Y-119380000D03*
X152400000Y-121920000D03*
X154940000Y-119380000D03*
X154940000Y-121920000D03*
X157480000Y-119380000D03*
X157480000Y-121920000D03*
X160020000Y-119380000D03*
X160020000Y-121920000D03*
X162560000Y-119380000D03*
X162560000Y-121920000D03*
X165100000Y-119380000D03*
X165100000Y-121920000D03*
X167640000Y-119380000D03*
X167640000Y-121920000D03*
X170180000Y-119380000D03*
X170180000Y-121920000D03*
X172720000Y-119380000D03*
X172720000Y-121920000D03*
X175260000Y-119380000D03*
X175260000Y-121920000D03*
X177800000Y-119380000D03*
X177800000Y-121920000D03*
X180340000Y-119380000D03*
X180340000Y-121920000D03*
X182880000Y-119380000D03*
X182880000Y-121920000D03*
X185420000Y-119380000D03*
X185420000Y-121920000D03*
X187960000Y-119380000D03*
X187960000Y-121920000D03*
X190500000Y-119380000D03*
X190500000Y-121920000D03*
D14*
X137370000Y-71650000D03*
X195370000Y-120650000D03*
X195370000Y-71650000D03*
X137370000Y-120650000D03*
D10*
X187960000Y-83820000D03*
D11*
X190500000Y-83820000D03*
X187960000Y-86360000D03*
X190500000Y-86360000D03*
X187960000Y-88900000D03*
X190500000Y-88900000D03*
X187960000Y-91440000D03*
X190500000Y-91440000D03*
X187960000Y-93980000D03*
X190500000Y-93980000D03*
X187960000Y-96520000D03*
X190500000Y-96520000D03*
D15*
X152654000Y-80772000D03*
X153416000Y-76962000D03*
X144780000Y-124460000D03*
X165100000Y-125730000D03*
X199390000Y-125730000D03*
X198755000Y-109220000D03*
X173355000Y-116205000D03*
X143510000Y-116840000D03*
X177165000Y-84455000D03*
X166370000Y-87122000D03*
X164465000Y-97790000D03*
X144780000Y-82550000D03*
X168910000Y-76200000D03*
X139065000Y-112395000D03*
X139700000Y-104140000D03*
X151765000Y-76200000D03*
X176764990Y-89535000D03*
X192532000Y-111760000D03*
X164592000Y-102108000D03*
X147574000Y-102362000D03*
X178308000Y-102108000D03*
X194056000Y-113284000D03*
X153670000Y-96520002D03*
X159004008Y-80518000D03*
X160503000Y-71399000D03*
X152400000Y-102108000D03*
X158496000Y-102108000D03*
X148082000Y-115824008D03*
X173482000Y-101600000D03*
X172466002Y-101600000D03*
X171450000Y-101600000D03*
X163576000Y-75692000D03*
X163059663Y-77224337D03*
D16*
X147320000Y-121920000D02*
X147320000Y-123952000D01*
X147320000Y-123952000D02*
X148336000Y-124968000D01*
X148336000Y-124968000D02*
X164084000Y-124968000D01*
X165100000Y-123952000D02*
X165100000Y-121920000D01*
X164084000Y-124968000D02*
X165100000Y-123952000D01*
X177800000Y-123952000D02*
X177800000Y-121920000D01*
X176784000Y-124968000D02*
X177800000Y-123952000D01*
X165100000Y-123952000D02*
X166116000Y-124968000D01*
X166116000Y-124968000D02*
X176784000Y-124968000D01*
X190500000Y-119380000D02*
X190500000Y-118110000D01*
X190500000Y-118110000D02*
X192532000Y-116078000D01*
X192532000Y-116078000D02*
X198882000Y-116078000D01*
X177800000Y-107998686D02*
X178864686Y-106934000D01*
X177800000Y-109220000D02*
X177800000Y-107998686D01*
X178864686Y-106934000D02*
X191770000Y-106934000D01*
X176735314Y-106934000D02*
X177800000Y-107998686D01*
X156004686Y-106934000D02*
X176735314Y-106934000D01*
X154940000Y-109220000D02*
X154940000Y-107998686D01*
X154940000Y-107998686D02*
X156004686Y-106934000D01*
X199898000Y-117094000D02*
X198882000Y-116078000D01*
X199898000Y-123698000D02*
X199898000Y-117094000D01*
X198628000Y-124968000D02*
X199898000Y-123698000D01*
X177800000Y-123952000D02*
X178816000Y-124968000D01*
X178816000Y-124968000D02*
X198628000Y-124968000D01*
X199136000Y-116078000D02*
X198882000Y-116078000D01*
X199898000Y-115316000D02*
X199136000Y-116078000D01*
X199898000Y-112268000D02*
X199898000Y-115316000D01*
X198882000Y-111252000D02*
X199898000Y-112268000D01*
X191770000Y-106934000D02*
X196088000Y-111252000D01*
X196088000Y-111252000D02*
X198882000Y-111252000D01*
X152146000Y-78232000D02*
X153416000Y-76962000D01*
X152146000Y-80264000D02*
X152146000Y-78232000D01*
X152654000Y-80772000D02*
X152146000Y-80264000D01*
X185420000Y-100838000D02*
X186182000Y-101600000D01*
X186182000Y-101600000D02*
X187960000Y-101600000D01*
X189484000Y-106934000D02*
X191770000Y-106934000D01*
X189484000Y-104902000D02*
X189484000Y-106934000D01*
X187960000Y-101600000D02*
X187960000Y-103378000D01*
X187960000Y-103378000D02*
X189484000Y-104902000D01*
X190500000Y-93980000D02*
X187960000Y-93980000D01*
X190500000Y-93980000D02*
X191702081Y-93980000D01*
X191702081Y-93980000D02*
X191702081Y-94039081D01*
X191702081Y-94039081D02*
X193675000Y-96012000D01*
X193675000Y-96012000D02*
X193675000Y-98552000D01*
X190627000Y-101600000D02*
X187960000Y-101600000D01*
X193675000Y-98552000D02*
X190627000Y-101600000D01*
X145288000Y-115824000D02*
X146958012Y-117494012D01*
X134620000Y-113030000D02*
X135382000Y-113792000D01*
X173900661Y-100750001D02*
X173893458Y-100742798D01*
X173893458Y-100742798D02*
X171038543Y-100742799D01*
X137795000Y-108585000D02*
X137795000Y-111213000D01*
X145629999Y-100750001D02*
X137795000Y-108585000D01*
X135978000Y-113030000D02*
X134620000Y-113030000D01*
X135382000Y-113792000D02*
X144780000Y-113792000D01*
X171031341Y-100750001D02*
X145629999Y-100750001D01*
X185332001Y-100750001D02*
X173900661Y-100750001D01*
X171038543Y-100742799D02*
X171031341Y-100750001D01*
X144780000Y-113792000D02*
X145288000Y-114300000D01*
X137795000Y-111213000D02*
X135978000Y-113030000D01*
X145288000Y-114300000D02*
X145288000Y-115824000D01*
X150514012Y-117494012D02*
X152400000Y-119380000D01*
X146958012Y-117494012D02*
X150514012Y-117494012D01*
X193490315Y-113284000D02*
X194056000Y-113284000D01*
X177800000Y-111760000D02*
X179324000Y-113284000D01*
X179324000Y-113284000D02*
X193490315Y-113284000D01*
X187960000Y-96520000D02*
X153670002Y-96520000D01*
X132588000Y-106045000D02*
X142112998Y-96520002D01*
X153670002Y-96520000D02*
X153670000Y-96520002D01*
X139026000Y-114808000D02*
X133096000Y-114808000D01*
X133096000Y-114808000D02*
X132588000Y-114300000D01*
X142112998Y-96520002D02*
X153104315Y-96520002D01*
X153104315Y-96520002D02*
X153670000Y-96520002D01*
X132588000Y-114300000D02*
X132588000Y-106045000D01*
X142240000Y-118022000D02*
X139026000Y-114808000D01*
X142240000Y-119380000D02*
X142240000Y-118022000D01*
D17*
X160503000Y-71399000D02*
X159004008Y-72897992D01*
X159004008Y-72897992D02*
X159004008Y-79952315D01*
X159004008Y-79952315D02*
X159004008Y-80518000D01*
D18*
X171856401Y-110083599D02*
X172720000Y-109220000D01*
X171450000Y-120650000D02*
X171450000Y-110490000D01*
X172720000Y-121920000D02*
X171450000Y-120650000D01*
X171450000Y-110490000D02*
X171856401Y-110083599D01*
X169316401Y-110083599D02*
X170180000Y-109220000D01*
X168910000Y-120650000D02*
X168910000Y-110490000D01*
X170180000Y-121920000D02*
X168910000Y-120650000D01*
X168910000Y-110490000D02*
X169316401Y-110083599D01*
X170180000Y-118177919D02*
X170180000Y-111760000D01*
X170180000Y-119380000D02*
X170180000Y-118177919D01*
X152400000Y-102108000D02*
X158496000Y-102108000D01*
X161696401Y-110083599D02*
X162560000Y-109220000D01*
X161290000Y-120650000D02*
X161290000Y-110490000D01*
X162560000Y-121920000D02*
X161290000Y-120650000D01*
X161290000Y-110490000D02*
X161696401Y-110083599D01*
X162560000Y-116840000D02*
X162560000Y-111760000D01*
X165100000Y-119380000D02*
X162560000Y-116840000D01*
X159156401Y-110083599D02*
X160020000Y-109220000D01*
X158750000Y-120650000D02*
X158750000Y-110490000D01*
X160020000Y-121920000D02*
X158750000Y-120650000D01*
X158750000Y-110490000D02*
X159156401Y-110083599D01*
X160020000Y-118177919D02*
X160020000Y-111760000D01*
X160020000Y-119380000D02*
X160020000Y-118177919D01*
X157480000Y-119380000D02*
X157480000Y-111760000D01*
D19*
X150875992Y-115824008D02*
X148647685Y-115824008D01*
X154940000Y-111760000D02*
X150875992Y-115824008D01*
X148647685Y-115824008D02*
X148082000Y-115824008D01*
D17*
X149860000Y-109220000D02*
X152908000Y-106172000D01*
X152908000Y-106172000D02*
X169475685Y-106172000D01*
X173482000Y-102165685D02*
X173482000Y-101600000D01*
X169475685Y-106172000D02*
X173482000Y-102165685D01*
D18*
X146456401Y-116094361D02*
X146456401Y-112623599D01*
X146456401Y-112623599D02*
X147320000Y-111760000D01*
X147202040Y-116840000D02*
X146456401Y-116094361D01*
X152400000Y-116840000D02*
X147202040Y-116840000D01*
X154940000Y-119380000D02*
X152400000Y-116840000D01*
D17*
X145796000Y-105664000D02*
X168967687Y-105664000D01*
X142240000Y-109220000D02*
X145796000Y-105664000D01*
X172466002Y-102165685D02*
X172466002Y-101600000D01*
X168967687Y-105664000D02*
X172466002Y-102165685D01*
X143764000Y-105156000D02*
X167894000Y-105156000D01*
X171050001Y-101999999D02*
X171450000Y-101600000D01*
X140716000Y-108204000D02*
X143764000Y-105156000D01*
X140716000Y-111353600D02*
X140716000Y-108204000D01*
X141122400Y-111760000D02*
X140716000Y-111353600D01*
X167894000Y-105156000D02*
X171050001Y-101999999D01*
X142240000Y-111760000D02*
X141122400Y-111760000D01*
X163576000Y-75692000D02*
X163576000Y-76708000D01*
X163576000Y-76708000D02*
X163459662Y-76824338D01*
X163459662Y-76824338D02*
X163059663Y-77224337D01*
G36*
X200000000Y-126340000D02*
G01*
X132740000Y-126340000D01*
X132740000Y-115625740D01*
X132754149Y-115633303D01*
X132820058Y-115653296D01*
X132921724Y-115684136D01*
X132954924Y-115687406D01*
X133052333Y-115697000D01*
X133052339Y-115697000D01*
X133095999Y-115701300D01*
X133139659Y-115697000D01*
X138657765Y-115697000D01*
X140994160Y-118033395D01*
X140938815Y-118078815D01*
X140859463Y-118175506D01*
X140800498Y-118285820D01*
X140785919Y-118333880D01*
X140575650Y-118019191D01*
X140000809Y-117444350D01*
X139324868Y-116992700D01*
X138573802Y-116681598D01*
X137776474Y-116523000D01*
X136963526Y-116523000D01*
X136166198Y-116681598D01*
X135415132Y-116992700D01*
X134739191Y-117444350D01*
X134164350Y-118019191D01*
X133712700Y-118695132D01*
X133401598Y-119446198D01*
X133243000Y-120243526D01*
X133243000Y-121056474D01*
X133401598Y-121853802D01*
X133712700Y-122604868D01*
X134164350Y-123280809D01*
X134739191Y-123855650D01*
X135415132Y-124307300D01*
X136166198Y-124618402D01*
X136963526Y-124777000D01*
X137776474Y-124777000D01*
X138573802Y-124618402D01*
X139324868Y-124307300D01*
X140000809Y-123855650D01*
X140575650Y-123280809D01*
X140968935Y-122692217D01*
X140999294Y-122749014D01*
X141184866Y-122975134D01*
X141410986Y-123160706D01*
X141668966Y-123298599D01*
X141948889Y-123383513D01*
X142167050Y-123405000D01*
X142312950Y-123405000D01*
X142531111Y-123383513D01*
X142811034Y-123298599D01*
X143069014Y-123160706D01*
X143295134Y-122975134D01*
X143480706Y-122749014D01*
X143510000Y-122694209D01*
X143539294Y-122749014D01*
X143724866Y-122975134D01*
X143950986Y-123160706D01*
X144208966Y-123298599D01*
X144488889Y-123383513D01*
X144707050Y-123405000D01*
X144852950Y-123405000D01*
X145071111Y-123383513D01*
X145351034Y-123298599D01*
X145609014Y-123160706D01*
X145835134Y-122975134D01*
X146020706Y-122749014D01*
X146055201Y-122684477D01*
X146124822Y-122801355D01*
X146319731Y-123017588D01*
X146553080Y-123191641D01*
X146815901Y-123316825D01*
X146963110Y-123361476D01*
X147193000Y-123240155D01*
X147193000Y-122047000D01*
X147173000Y-122047000D01*
X147173000Y-121793000D01*
X147193000Y-121793000D01*
X147193000Y-121773000D01*
X147447000Y-121773000D01*
X147447000Y-121793000D01*
X147467000Y-121793000D01*
X147467000Y-122047000D01*
X147447000Y-122047000D01*
X147447000Y-123240155D01*
X147676890Y-123361476D01*
X147824099Y-123316825D01*
X148086920Y-123191641D01*
X148320269Y-123017588D01*
X148515178Y-122801355D01*
X148584799Y-122684477D01*
X148619294Y-122749014D01*
X148804866Y-122975134D01*
X149030986Y-123160706D01*
X149288966Y-123298599D01*
X149568889Y-123383513D01*
X149787050Y-123405000D01*
X149932950Y-123405000D01*
X150151111Y-123383513D01*
X150431034Y-123298599D01*
X150689014Y-123160706D01*
X150915134Y-122975134D01*
X151100706Y-122749014D01*
X151130000Y-122694209D01*
X151159294Y-122749014D01*
X151344866Y-122975134D01*
X151570986Y-123160706D01*
X151828966Y-123298599D01*
X152108889Y-123383513D01*
X152327050Y-123405000D01*
X152472950Y-123405000D01*
X152691111Y-123383513D01*
X152971034Y-123298599D01*
X153229014Y-123160706D01*
X153455134Y-122975134D01*
X153640706Y-122749014D01*
X153670000Y-122694209D01*
X153699294Y-122749014D01*
X153884866Y-122975134D01*
X154110986Y-123160706D01*
X154368966Y-123298599D01*
X154648889Y-123383513D01*
X154867050Y-123405000D01*
X155012950Y-123405000D01*
X155231111Y-123383513D01*
X155511034Y-123298599D01*
X155769014Y-123160706D01*
X155995134Y-122975134D01*
X156180706Y-122749014D01*
X156210000Y-122694209D01*
X156239294Y-122749014D01*
X156424866Y-122975134D01*
X156650986Y-123160706D01*
X156908966Y-123298599D01*
X157188889Y-123383513D01*
X157407050Y-123405000D01*
X157552950Y-123405000D01*
X157771111Y-123383513D01*
X158051034Y-123298599D01*
X158309014Y-123160706D01*
X158535134Y-122975134D01*
X158720706Y-122749014D01*
X158750000Y-122694209D01*
X158779294Y-122749014D01*
X158964866Y-122975134D01*
X159190986Y-123160706D01*
X159448966Y-123298599D01*
X159728889Y-123383513D01*
X159947050Y-123405000D01*
X160092950Y-123405000D01*
X160311111Y-123383513D01*
X160591034Y-123298599D01*
X160849014Y-123160706D01*
X161075134Y-122975134D01*
X161260706Y-122749014D01*
X161290000Y-122694209D01*
X161319294Y-122749014D01*
X161504866Y-122975134D01*
X161730986Y-123160706D01*
X161988966Y-123298599D01*
X162268889Y-123383513D01*
X162487050Y-123405000D01*
X162632950Y-123405000D01*
X162851111Y-123383513D01*
X163131034Y-123298599D01*
X163389014Y-123160706D01*
X163615134Y-122975134D01*
X163800706Y-122749014D01*
X163835201Y-122684477D01*
X163904822Y-122801355D01*
X164099731Y-123017588D01*
X164333080Y-123191641D01*
X164595901Y-123316825D01*
X164743110Y-123361476D01*
X164973000Y-123240155D01*
X164973000Y-122047000D01*
X164953000Y-122047000D01*
X164953000Y-121793000D01*
X164973000Y-121793000D01*
X164973000Y-121773000D01*
X165227000Y-121773000D01*
X165227000Y-121793000D01*
X165247000Y-121793000D01*
X165247000Y-122047000D01*
X165227000Y-122047000D01*
X165227000Y-123240155D01*
X165456890Y-123361476D01*
X165604099Y-123316825D01*
X165866920Y-123191641D01*
X166100269Y-123017588D01*
X166295178Y-122801355D01*
X166364799Y-122684477D01*
X166399294Y-122749014D01*
X166584866Y-122975134D01*
X166810986Y-123160706D01*
X167068966Y-123298599D01*
X167348889Y-123383513D01*
X167567050Y-123405000D01*
X167712950Y-123405000D01*
X167931111Y-123383513D01*
X168211034Y-123298599D01*
X168469014Y-123160706D01*
X168695134Y-122975134D01*
X168880706Y-122749014D01*
X168910000Y-122694209D01*
X168939294Y-122749014D01*
X169124866Y-122975134D01*
X169350986Y-123160706D01*
X169608966Y-123298599D01*
X169888889Y-123383513D01*
X170107050Y-123405000D01*
X170252950Y-123405000D01*
X170471111Y-123383513D01*
X170751034Y-123298599D01*
X171009014Y-123160706D01*
X171235134Y-122975134D01*
X171420706Y-122749014D01*
X171450000Y-122694209D01*
X171479294Y-122749014D01*
X171664866Y-122975134D01*
X171890986Y-123160706D01*
X172148966Y-123298599D01*
X172428889Y-123383513D01*
X172647050Y-123405000D01*
X172792950Y-123405000D01*
X173011111Y-123383513D01*
X173291034Y-123298599D01*
X173549014Y-123160706D01*
X173775134Y-122975134D01*
X173960706Y-122749014D01*
X173990000Y-122694209D01*
X174019294Y-122749014D01*
X174204866Y-122975134D01*
X174430986Y-123160706D01*
X174688966Y-123298599D01*
X174968889Y-123383513D01*
X175187050Y-123405000D01*
X175332950Y-123405000D01*
X175551111Y-123383513D01*
X175831034Y-123298599D01*
X176089014Y-123160706D01*
X176315134Y-122975134D01*
X176500706Y-122749014D01*
X176535201Y-122684477D01*
X176604822Y-122801355D01*
X176799731Y-123017588D01*
X177033080Y-123191641D01*
X177295901Y-123316825D01*
X177443110Y-123361476D01*
X177673000Y-123240155D01*
X177673000Y-122047000D01*
X177653000Y-122047000D01*
X177653000Y-121793000D01*
X177673000Y-121793000D01*
X177673000Y-121773000D01*
X177927000Y-121773000D01*
X177927000Y-121793000D01*
X177947000Y-121793000D01*
X177947000Y-122047000D01*
X177927000Y-122047000D01*
X177927000Y-123240155D01*
X178156890Y-123361476D01*
X178304099Y-123316825D01*
X178566920Y-123191641D01*
X178800269Y-123017588D01*
X178995178Y-122801355D01*
X179064799Y-122684477D01*
X179099294Y-122749014D01*
X179284866Y-122975134D01*
X179510986Y-123160706D01*
X179768966Y-123298599D01*
X180048889Y-123383513D01*
X180267050Y-123405000D01*
X180412950Y-123405000D01*
X180631111Y-123383513D01*
X180911034Y-123298599D01*
X181169014Y-123160706D01*
X181395134Y-122975134D01*
X181580706Y-122749014D01*
X181610000Y-122694209D01*
X181639294Y-122749014D01*
X181824866Y-122975134D01*
X182050986Y-123160706D01*
X182308966Y-123298599D01*
X182588889Y-123383513D01*
X182807050Y-123405000D01*
X182952950Y-123405000D01*
X183171111Y-123383513D01*
X183451034Y-123298599D01*
X183709014Y-123160706D01*
X183935134Y-122975134D01*
X184120706Y-122749014D01*
X184150000Y-122694209D01*
X184179294Y-122749014D01*
X184364866Y-122975134D01*
X184590986Y-123160706D01*
X184848966Y-123298599D01*
X185128889Y-123383513D01*
X185347050Y-123405000D01*
X185492950Y-123405000D01*
X185711111Y-123383513D01*
X185991034Y-123298599D01*
X186249014Y-123160706D01*
X186475134Y-122975134D01*
X186660706Y-122749014D01*
X186690000Y-122694209D01*
X186719294Y-122749014D01*
X186904866Y-122975134D01*
X187130986Y-123160706D01*
X187388966Y-123298599D01*
X187668889Y-123383513D01*
X187887050Y-123405000D01*
X188032950Y-123405000D01*
X188251111Y-123383513D01*
X188531034Y-123298599D01*
X188789014Y-123160706D01*
X189015134Y-122975134D01*
X189200706Y-122749014D01*
X189230000Y-122694209D01*
X189259294Y-122749014D01*
X189444866Y-122975134D01*
X189670986Y-123160706D01*
X189928966Y-123298599D01*
X190208889Y-123383513D01*
X190427050Y-123405000D01*
X190572950Y-123405000D01*
X190791111Y-123383513D01*
X191071034Y-123298599D01*
X191329014Y-123160706D01*
X191555134Y-122975134D01*
X191740706Y-122749014D01*
X191771065Y-122692217D01*
X192164350Y-123280809D01*
X192739191Y-123855650D01*
X193415132Y-124307300D01*
X194166198Y-124618402D01*
X194963526Y-124777000D01*
X195776474Y-124777000D01*
X196573802Y-124618402D01*
X197324868Y-124307300D01*
X198000809Y-123855650D01*
X198575650Y-123280809D01*
X199027300Y-122604868D01*
X199338402Y-121853802D01*
X199497000Y-121056474D01*
X199497000Y-120243526D01*
X199338402Y-119446198D01*
X199027300Y-118695132D01*
X198575650Y-118019191D01*
X198000809Y-117444350D01*
X197324868Y-116992700D01*
X196573802Y-116681598D01*
X195776474Y-116523000D01*
X194963526Y-116523000D01*
X194166198Y-116681598D01*
X193415132Y-116992700D01*
X192739191Y-117444350D01*
X192164350Y-118019191D01*
X191765315Y-118616389D01*
X191695178Y-118498645D01*
X191500269Y-118282412D01*
X191266920Y-118108359D01*
X191004099Y-117983175D01*
X190856890Y-117938524D01*
X190627000Y-118059845D01*
X190627000Y-119253000D01*
X190647000Y-119253000D01*
X190647000Y-119507000D01*
X190627000Y-119507000D01*
X190627000Y-119527000D01*
X190373000Y-119527000D01*
X190373000Y-119507000D01*
X190353000Y-119507000D01*
X190353000Y-119253000D01*
X190373000Y-119253000D01*
X190373000Y-118059845D01*
X190143110Y-117938524D01*
X189995901Y-117983175D01*
X189733080Y-118108359D01*
X189499731Y-118282412D01*
X189304822Y-118498645D01*
X189235201Y-118615523D01*
X189200706Y-118550986D01*
X189015134Y-118324866D01*
X188789014Y-118139294D01*
X188531034Y-118001401D01*
X188251111Y-117916487D01*
X188032950Y-117895000D01*
X187887050Y-117895000D01*
X187668889Y-117916487D01*
X187388966Y-118001401D01*
X187130986Y-118139294D01*
X186904866Y-118324866D01*
X186719294Y-118550986D01*
X186690000Y-118605791D01*
X186660706Y-118550986D01*
X186475134Y-118324866D01*
X186249014Y-118139294D01*
X185991034Y-118001401D01*
X185711111Y-117916487D01*
X185492950Y-117895000D01*
X185347050Y-117895000D01*
X185128889Y-117916487D01*
X184848966Y-118001401D01*
X184590986Y-118139294D01*
X184364866Y-118324866D01*
X184179294Y-118550986D01*
X184150000Y-118605791D01*
X184120706Y-118550986D01*
X183935134Y-118324866D01*
X183709014Y-118139294D01*
X183451034Y-118001401D01*
X183171111Y-117916487D01*
X182952950Y-117895000D01*
X182807050Y-117895000D01*
X182588889Y-117916487D01*
X182308966Y-118001401D01*
X182050986Y-118139294D01*
X181824866Y-118324866D01*
X181639294Y-118550986D01*
X181610000Y-118605791D01*
X181580706Y-118550986D01*
X181395134Y-118324866D01*
X181169014Y-118139294D01*
X180911034Y-118001401D01*
X180631111Y-117916487D01*
X180412950Y-117895000D01*
X180267050Y-117895000D01*
X180048889Y-117916487D01*
X179768966Y-118001401D01*
X179510986Y-118139294D01*
X179284866Y-118324866D01*
X179099294Y-118550986D01*
X179070000Y-118605791D01*
X179040706Y-118550986D01*
X178855134Y-118324866D01*
X178629014Y-118139294D01*
X178371034Y-118001401D01*
X178091111Y-117916487D01*
X177872950Y-117895000D01*
X177727050Y-117895000D01*
X177508889Y-117916487D01*
X177228966Y-118001401D01*
X176970986Y-118139294D01*
X176744866Y-118324866D01*
X176559294Y-118550986D01*
X176530000Y-118605791D01*
X176500706Y-118550986D01*
X176315134Y-118324866D01*
X176089014Y-118139294D01*
X175831034Y-118001401D01*
X175551111Y-117916487D01*
X175332950Y-117895000D01*
X175187050Y-117895000D01*
X174968889Y-117916487D01*
X174688966Y-118001401D01*
X174430986Y-118139294D01*
X174204866Y-118324866D01*
X174019294Y-118550986D01*
X173990000Y-118605791D01*
X173960706Y-118550986D01*
X173775134Y-118324866D01*
X173549014Y-118139294D01*
X173291034Y-118001401D01*
X173011111Y-117916487D01*
X172792950Y-117895000D01*
X172647050Y-117895000D01*
X172428889Y-117916487D01*
X172262800Y-117966870D01*
X172262800Y-113187342D01*
X172426223Y-113236916D01*
X172646381Y-113258600D01*
X172793619Y-113258600D01*
X173013777Y-113236916D01*
X173296264Y-113151225D01*
X173556606Y-113012069D01*
X173784797Y-112824797D01*
X173972069Y-112596606D01*
X173990000Y-112563060D01*
X174007931Y-112596606D01*
X174195203Y-112824797D01*
X174423394Y-113012069D01*
X174683736Y-113151225D01*
X174966223Y-113236916D01*
X175186381Y-113258600D01*
X175333619Y-113258600D01*
X175553777Y-113236916D01*
X175836264Y-113151225D01*
X176096606Y-113012069D01*
X176324797Y-112824797D01*
X176512069Y-112596606D01*
X176530000Y-112563060D01*
X176547931Y-112596606D01*
X176735203Y-112824797D01*
X176963394Y-113012069D01*
X177223736Y-113151225D01*
X177506223Y-113236916D01*
X177726381Y-113258600D01*
X177873619Y-113258600D01*
X178026324Y-113243560D01*
X178664506Y-113881741D01*
X178692341Y-113915659D01*
X178827709Y-114026753D01*
X178982149Y-114109303D01*
X179048058Y-114129296D01*
X179149724Y-114160136D01*
X179182924Y-114163406D01*
X179280333Y-114173000D01*
X179280339Y-114173000D01*
X179323999Y-114177300D01*
X179367659Y-114173000D01*
X193523532Y-114173000D01*
X193565744Y-114201205D01*
X193754102Y-114279226D01*
X193954061Y-114319000D01*
X194157939Y-114319000D01*
X194357898Y-114279226D01*
X194546256Y-114201205D01*
X194715774Y-114087937D01*
X194859937Y-113943774D01*
X194973205Y-113774256D01*
X195051226Y-113585898D01*
X195091000Y-113385939D01*
X195091000Y-113182061D01*
X195051226Y-112982102D01*
X194973205Y-112793744D01*
X194859937Y-112624226D01*
X194715774Y-112480063D01*
X194546256Y-112366795D01*
X194357898Y-112288774D01*
X194157939Y-112249000D01*
X193954061Y-112249000D01*
X193754102Y-112288774D01*
X193565744Y-112366795D01*
X193523532Y-112395000D01*
X191859830Y-112395000D01*
X191891225Y-112336264D01*
X191976916Y-112053777D01*
X192005851Y-111760000D01*
X191976916Y-111466223D01*
X191891225Y-111183736D01*
X191752069Y-110923394D01*
X191564797Y-110695203D01*
X191336606Y-110507931D01*
X191303060Y-110490000D01*
X191336606Y-110472069D01*
X191564797Y-110284797D01*
X191752069Y-110056606D01*
X191891225Y-109796264D01*
X191976916Y-109513777D01*
X192005851Y-109220000D01*
X191976916Y-108926223D01*
X191891225Y-108643736D01*
X191752069Y-108383394D01*
X191564797Y-108155203D01*
X191336606Y-107967931D01*
X191076264Y-107828775D01*
X190793777Y-107743084D01*
X190573619Y-107721400D01*
X190426381Y-107721400D01*
X190206223Y-107743084D01*
X189923736Y-107828775D01*
X189663394Y-107967931D01*
X189435203Y-108155203D01*
X189247931Y-108383394D01*
X189230000Y-108416940D01*
X189212069Y-108383394D01*
X189024797Y-108155203D01*
X188796606Y-107967931D01*
X188536264Y-107828775D01*
X188253777Y-107743084D01*
X188033619Y-107721400D01*
X187886381Y-107721400D01*
X187666223Y-107743084D01*
X187383736Y-107828775D01*
X187123394Y-107967931D01*
X186895203Y-108155203D01*
X186707931Y-108383394D01*
X186690000Y-108416940D01*
X186672069Y-108383394D01*
X186484797Y-108155203D01*
X186256606Y-107967931D01*
X185996264Y-107828775D01*
X185713777Y-107743084D01*
X185493619Y-107721400D01*
X185346381Y-107721400D01*
X185126223Y-107743084D01*
X184843736Y-107828775D01*
X184583394Y-107967931D01*
X184355203Y-108155203D01*
X184167931Y-108383394D01*
X184150000Y-108416940D01*
X184132069Y-108383394D01*
X183944797Y-108155203D01*
X183716606Y-107967931D01*
X183456264Y-107828775D01*
X183173777Y-107743084D01*
X182953619Y-107721400D01*
X182806381Y-107721400D01*
X182586223Y-107743084D01*
X182303736Y-107828775D01*
X182043394Y-107967931D01*
X181815203Y-108155203D01*
X181627931Y-108383394D01*
X181610000Y-108416940D01*
X181592069Y-108383394D01*
X181404797Y-108155203D01*
X181176606Y-107967931D01*
X180916264Y-107828775D01*
X180633777Y-107743084D01*
X180413619Y-107721400D01*
X180266381Y-107721400D01*
X180046223Y-107743084D01*
X179763736Y-107828775D01*
X179503394Y-107967931D01*
X179275203Y-108155203D01*
X179087931Y-108383394D01*
X179064137Y-108427910D01*
X179006817Y-108331512D01*
X178810293Y-108113146D01*
X178574944Y-107937316D01*
X178309814Y-107810778D01*
X178159026Y-107765042D01*
X177927000Y-107886183D01*
X177927000Y-109093000D01*
X177947000Y-109093000D01*
X177947000Y-109347000D01*
X177927000Y-109347000D01*
X177927000Y-109367000D01*
X177673000Y-109367000D01*
X177673000Y-109347000D01*
X177653000Y-109347000D01*
X177653000Y-109093000D01*
X177673000Y-109093000D01*
X177673000Y-107886183D01*
X177440974Y-107765042D01*
X177290186Y-107810778D01*
X177025056Y-107937316D01*
X176789707Y-108113146D01*
X176593183Y-108331512D01*
X176535863Y-108427910D01*
X176512069Y-108383394D01*
X176324797Y-108155203D01*
X176096606Y-107967931D01*
X175836264Y-107828775D01*
X175553777Y-107743084D01*
X175333619Y-107721400D01*
X175186381Y-107721400D01*
X174966223Y-107743084D01*
X174683736Y-107828775D01*
X174423394Y-107967931D01*
X174195203Y-108155203D01*
X174007931Y-108383394D01*
X173990000Y-108416940D01*
X173972069Y-108383394D01*
X173784797Y-108155203D01*
X173556606Y-107967931D01*
X173296264Y-107828775D01*
X173013777Y-107743084D01*
X172793619Y-107721400D01*
X172646381Y-107721400D01*
X172426223Y-107743084D01*
X172143736Y-107828775D01*
X171883394Y-107967931D01*
X171655203Y-108155203D01*
X171467931Y-108383394D01*
X171450000Y-108416940D01*
X171432069Y-108383394D01*
X171244797Y-108155203D01*
X171016606Y-107967931D01*
X170756264Y-107828775D01*
X170473777Y-107743084D01*
X170253619Y-107721400D01*
X170106381Y-107721400D01*
X169886223Y-107743084D01*
X169603736Y-107828775D01*
X169343394Y-107967931D01*
X169115203Y-108155203D01*
X168927931Y-108383394D01*
X168910000Y-108416940D01*
X168892069Y-108383394D01*
X168704797Y-108155203D01*
X168476606Y-107967931D01*
X168216264Y-107828775D01*
X167933777Y-107743084D01*
X167713619Y-107721400D01*
X167566381Y-107721400D01*
X167346223Y-107743084D01*
X167063736Y-107828775D01*
X166803394Y-107967931D01*
X166575203Y-108155203D01*
X166387931Y-108383394D01*
X166370000Y-108416940D01*
X166352069Y-108383394D01*
X166164797Y-108155203D01*
X165936606Y-107967931D01*
X165676264Y-107828775D01*
X165393777Y-107743084D01*
X165173619Y-107721400D01*
X165026381Y-107721400D01*
X164806223Y-107743084D01*
X164523736Y-107828775D01*
X164263394Y-107967931D01*
X164035203Y-108155203D01*
X163847931Y-108383394D01*
X163830000Y-108416940D01*
X163812069Y-108383394D01*
X163624797Y-108155203D01*
X163396606Y-107967931D01*
X163136264Y-107828775D01*
X162853777Y-107743084D01*
X162633619Y-107721400D01*
X162486381Y-107721400D01*
X162266223Y-107743084D01*
X161983736Y-107828775D01*
X161723394Y-107967931D01*
X161495203Y-108155203D01*
X161307931Y-108383394D01*
X161290000Y-108416940D01*
X161272069Y-108383394D01*
X161084797Y-108155203D01*
X160856606Y-107967931D01*
X160596264Y-107828775D01*
X160313777Y-107743084D01*
X160093619Y-107721400D01*
X159946381Y-107721400D01*
X159726223Y-107743084D01*
X159443736Y-107828775D01*
X159183394Y-107967931D01*
X158955203Y-108155203D01*
X158767931Y-108383394D01*
X158750000Y-108416940D01*
X158732069Y-108383394D01*
X158544797Y-108155203D01*
X158316606Y-107967931D01*
X158056264Y-107828775D01*
X157773777Y-107743084D01*
X157553619Y-107721400D01*
X157406381Y-107721400D01*
X157186223Y-107743084D01*
X156903736Y-107828775D01*
X156643394Y-107967931D01*
X156415203Y-108155203D01*
X156227931Y-108383394D01*
X156204137Y-108427910D01*
X156146817Y-108331512D01*
X155950293Y-108113146D01*
X155714944Y-107937316D01*
X155449814Y-107810778D01*
X155299026Y-107765042D01*
X155067000Y-107886183D01*
X155067000Y-109093000D01*
X155087000Y-109093000D01*
X155087000Y-109347000D01*
X155067000Y-109347000D01*
X155067000Y-109367000D01*
X154813000Y-109367000D01*
X154813000Y-109347000D01*
X154793000Y-109347000D01*
X154793000Y-109093000D01*
X154813000Y-109093000D01*
X154813000Y-107886183D01*
X154580974Y-107765042D01*
X154430186Y-107810778D01*
X154165056Y-107937316D01*
X153929707Y-108113146D01*
X153733183Y-108331512D01*
X153675863Y-108427910D01*
X153652069Y-108383394D01*
X153464797Y-108155203D01*
X153236606Y-107967931D01*
X152976264Y-107828775D01*
X152693777Y-107743084D01*
X152473619Y-107721400D01*
X152436231Y-107721400D01*
X153223631Y-106934000D01*
X169438262Y-106934000D01*
X169475685Y-106937686D01*
X169513108Y-106934000D01*
X169513111Y-106934000D01*
X169625063Y-106922974D01*
X169768700Y-106879402D01*
X169901077Y-106808645D01*
X170017107Y-106713422D01*
X170040969Y-106684346D01*
X173994353Y-102730963D01*
X174023422Y-102707107D01*
X174118645Y-102591077D01*
X174189402Y-102458700D01*
X174232974Y-102315063D01*
X174233228Y-102312483D01*
X174285937Y-102259774D01*
X174399205Y-102090256D01*
X174477226Y-101901898D01*
X174517000Y-101701939D01*
X174517000Y-101498061D01*
X174477226Y-101298102D01*
X174399205Y-101109744D01*
X174285937Y-100940226D01*
X174141774Y-100796063D01*
X173972256Y-100682795D01*
X173783898Y-100604774D01*
X173583939Y-100565000D01*
X173380061Y-100565000D01*
X173180102Y-100604774D01*
X172991744Y-100682795D01*
X172974001Y-100694650D01*
X172956258Y-100682795D01*
X172767900Y-100604774D01*
X172567941Y-100565000D01*
X172364063Y-100565000D01*
X172164104Y-100604774D01*
X171975746Y-100682795D01*
X171958001Y-100694652D01*
X171940256Y-100682795D01*
X171751898Y-100604774D01*
X171551939Y-100565000D01*
X171348061Y-100565000D01*
X171148102Y-100604774D01*
X170959744Y-100682795D01*
X170790226Y-100796063D01*
X170646063Y-100940226D01*
X170532795Y-101109744D01*
X170454774Y-101298102D01*
X170415000Y-101498061D01*
X170415000Y-101557369D01*
X167578370Y-104394000D01*
X143801423Y-104394000D01*
X143764000Y-104390314D01*
X143726577Y-104394000D01*
X143726574Y-104394000D01*
X143614622Y-104405026D01*
X143470985Y-104448598D01*
X143409364Y-104481535D01*
X143338607Y-104519355D01*
X143255904Y-104587228D01*
X143222578Y-104614578D01*
X143198721Y-104643648D01*
X140203649Y-107638721D01*
X140174579Y-107662578D01*
X140150722Y-107691648D01*
X140150721Y-107691649D01*
X140079355Y-107778608D01*
X140008599Y-107910985D01*
X139965027Y-108054622D01*
X139950314Y-108204000D01*
X139954001Y-108241433D01*
X139954000Y-111316177D01*
X139950314Y-111353600D01*
X139954000Y-111391023D01*
X139954000Y-111391025D01*
X139965026Y-111502977D01*
X140008598Y-111646614D01*
X140008599Y-111646615D01*
X140079355Y-111778992D01*
X140102232Y-111806867D01*
X140174578Y-111895022D01*
X140203654Y-111918884D01*
X140557116Y-112272346D01*
X140580978Y-112301422D01*
X140697008Y-112396645D01*
X140738328Y-112418731D01*
X140738328Y-112623600D01*
X140750588Y-112748082D01*
X140786898Y-112867780D01*
X140845863Y-112978094D01*
X140925215Y-113074785D01*
X141021906Y-113154137D01*
X141132220Y-113213102D01*
X141251918Y-113249412D01*
X141376400Y-113261672D01*
X143103600Y-113261672D01*
X143228082Y-113249412D01*
X143347780Y-113213102D01*
X143458094Y-113154137D01*
X143554785Y-113074785D01*
X143634137Y-112978094D01*
X143693102Y-112867780D01*
X143708586Y-112816735D01*
X143715203Y-112824797D01*
X143943394Y-113012069D01*
X144203736Y-113151225D01*
X144486223Y-113236916D01*
X144706381Y-113258600D01*
X144853619Y-113258600D01*
X145073777Y-113236916D01*
X145356264Y-113151225D01*
X145616606Y-113012069D01*
X145643602Y-112989914D01*
X145643601Y-116054440D01*
X145639669Y-116094361D01*
X145643601Y-116134281D01*
X145643601Y-116134283D01*
X145655362Y-116253697D01*
X145701839Y-116406910D01*
X145777313Y-116548112D01*
X145878884Y-116671878D01*
X145909900Y-116697332D01*
X146599073Y-117386506D01*
X146624523Y-117417517D01*
X146748288Y-117519088D01*
X146889490Y-117594562D01*
X147042703Y-117641039D01*
X147162117Y-117652800D01*
X147162119Y-117652800D01*
X147202040Y-117656732D01*
X147241960Y-117652800D01*
X152063328Y-117652800D01*
X152305528Y-117895000D01*
X152272998Y-117895000D01*
X152272998Y-118059844D01*
X152043110Y-117938524D01*
X151895901Y-117983175D01*
X151633080Y-118108359D01*
X151399731Y-118282412D01*
X151204822Y-118498645D01*
X151135201Y-118615523D01*
X151100706Y-118550986D01*
X150915134Y-118324866D01*
X150689014Y-118139294D01*
X150431034Y-118001401D01*
X150151111Y-117916487D01*
X149932950Y-117895000D01*
X149787050Y-117895000D01*
X149568889Y-117916487D01*
X149288966Y-118001401D01*
X149030986Y-118139294D01*
X148804866Y-118324866D01*
X148619294Y-118550986D01*
X148590000Y-118605791D01*
X148560706Y-118550986D01*
X148375134Y-118324866D01*
X148149014Y-118139294D01*
X147891034Y-118001401D01*
X147611111Y-117916487D01*
X147392950Y-117895000D01*
X147247050Y-117895000D01*
X147028889Y-117916487D01*
X146748966Y-118001401D01*
X146490986Y-118139294D01*
X146264866Y-118324866D01*
X146079294Y-118550986D01*
X146050000Y-118605791D01*
X146020706Y-118550986D01*
X145835134Y-118324866D01*
X145609014Y-118139294D01*
X145351034Y-118001401D01*
X145071111Y-117916487D01*
X144852950Y-117895000D01*
X144707050Y-117895000D01*
X144488889Y-117916487D01*
X144208966Y-118001401D01*
X143950986Y-118139294D01*
X143724866Y-118324866D01*
X143700393Y-118354687D01*
X143679502Y-118285820D01*
X143620537Y-118175506D01*
X143541185Y-118078815D01*
X143444494Y-117999463D01*
X143334180Y-117940498D01*
X143214482Y-117904188D01*
X143120788Y-117894960D01*
X143116136Y-117847726D01*
X143116136Y-117847724D01*
X143065302Y-117680147D01*
X143052786Y-117656732D01*
X142982753Y-117525709D01*
X142871659Y-117390341D01*
X142837736Y-117362501D01*
X139685499Y-114210264D01*
X139657659Y-114176341D01*
X139522291Y-114065247D01*
X139367851Y-113982697D01*
X139200274Y-113931864D01*
X139069667Y-113919000D01*
X139069660Y-113919000D01*
X139026000Y-113914700D01*
X138982340Y-113919000D01*
X135850231Y-113919000D01*
X135854072Y-113880000D01*
X135851000Y-113315750D01*
X135692250Y-113157000D01*
X134493000Y-113157000D01*
X134493000Y-113177000D01*
X134239000Y-113177000D01*
X134239000Y-113157000D01*
X134219000Y-113157000D01*
X134219000Y-112903000D01*
X134239000Y-112903000D01*
X134239000Y-112883000D01*
X134493000Y-112883000D01*
X134493000Y-112903000D01*
X135692250Y-112903000D01*
X135851000Y-112744250D01*
X135854072Y-112180000D01*
X135841812Y-112055518D01*
X135805502Y-111935820D01*
X135746537Y-111825506D01*
X135667185Y-111728815D01*
X135570494Y-111649463D01*
X135460180Y-111590498D01*
X135391313Y-111569607D01*
X135421134Y-111545134D01*
X135606706Y-111319014D01*
X135744599Y-111061034D01*
X135829513Y-110781111D01*
X135858185Y-110490000D01*
X135829513Y-110198889D01*
X135744599Y-109918966D01*
X135606706Y-109660986D01*
X135421134Y-109434866D01*
X135195014Y-109249294D01*
X135140209Y-109220000D01*
X135195014Y-109190706D01*
X135421134Y-109005134D01*
X135606706Y-108779014D01*
X135744599Y-108521034D01*
X135829513Y-108241111D01*
X135858185Y-107950000D01*
X135829513Y-107658889D01*
X135744599Y-107378966D01*
X135606706Y-107120986D01*
X135421134Y-106894866D01*
X135195014Y-106709294D01*
X134937034Y-106571401D01*
X134657111Y-106486487D01*
X134438950Y-106465000D01*
X134293050Y-106465000D01*
X134074889Y-106486487D01*
X133794966Y-106571401D01*
X133536986Y-106709294D01*
X133477000Y-106758523D01*
X133477000Y-106413235D01*
X137884174Y-102006061D01*
X151365000Y-102006061D01*
X151365000Y-102209939D01*
X151404774Y-102409898D01*
X151482795Y-102598256D01*
X151596063Y-102767774D01*
X151740226Y-102911937D01*
X151909744Y-103025205D01*
X152098102Y-103103226D01*
X152298061Y-103143000D01*
X152501939Y-103143000D01*
X152701898Y-103103226D01*
X152890256Y-103025205D01*
X153046510Y-102920800D01*
X157849490Y-102920800D01*
X158005744Y-103025205D01*
X158194102Y-103103226D01*
X158394061Y-103143000D01*
X158597939Y-103143000D01*
X158797898Y-103103226D01*
X158986256Y-103025205D01*
X159155774Y-102911937D01*
X159299937Y-102767774D01*
X159413205Y-102598256D01*
X159491226Y-102409898D01*
X159531000Y-102209939D01*
X159531000Y-102006061D01*
X159491226Y-101806102D01*
X159413205Y-101617744D01*
X159299937Y-101448226D01*
X159155774Y-101304063D01*
X158986256Y-101190795D01*
X158797898Y-101112774D01*
X158597939Y-101073000D01*
X158394061Y-101073000D01*
X158194102Y-101112774D01*
X158005744Y-101190795D01*
X157849490Y-101295200D01*
X153046510Y-101295200D01*
X152890256Y-101190795D01*
X152701898Y-101112774D01*
X152501939Y-101073000D01*
X152298061Y-101073000D01*
X152098102Y-101112774D01*
X151909744Y-101190795D01*
X151740226Y-101304063D01*
X151596063Y-101448226D01*
X151482795Y-101617744D01*
X151404774Y-101806102D01*
X151365000Y-102006061D01*
X137884174Y-102006061D01*
X142481233Y-97409002D01*
X153137532Y-97409002D01*
X153179744Y-97437207D01*
X153368102Y-97515228D01*
X153568061Y-97555002D01*
X153771939Y-97555002D01*
X153971898Y-97515228D01*
X154160256Y-97437207D01*
X154202471Y-97409000D01*
X186768523Y-97409000D01*
X186904866Y-97575134D01*
X187130986Y-97760706D01*
X187388966Y-97898599D01*
X187668889Y-97983513D01*
X187887050Y-98005000D01*
X188032950Y-98005000D01*
X188251111Y-97983513D01*
X188531034Y-97898599D01*
X188789014Y-97760706D01*
X189015134Y-97575134D01*
X189200706Y-97349014D01*
X189230000Y-97294209D01*
X189259294Y-97349014D01*
X189444866Y-97575134D01*
X189670986Y-97760706D01*
X189928966Y-97898599D01*
X190208889Y-97983513D01*
X190427050Y-98005000D01*
X190572950Y-98005000D01*
X190791111Y-97983513D01*
X191071034Y-97898599D01*
X191329014Y-97760706D01*
X191555134Y-97575134D01*
X191740706Y-97349014D01*
X191878599Y-97091034D01*
X191963513Y-96811111D01*
X191992185Y-96520000D01*
X191963513Y-96228889D01*
X191878599Y-95948966D01*
X191740706Y-95690986D01*
X191555134Y-95464866D01*
X191329014Y-95279294D01*
X191264477Y-95244799D01*
X191381355Y-95175178D01*
X191597588Y-94980269D01*
X191771641Y-94746920D01*
X191896825Y-94484099D01*
X191941476Y-94336890D01*
X191820155Y-94107000D01*
X190627000Y-94107000D01*
X190627000Y-94127000D01*
X190373000Y-94127000D01*
X190373000Y-94107000D01*
X188087000Y-94107000D01*
X188087000Y-94127000D01*
X187833000Y-94127000D01*
X187833000Y-94107000D01*
X186639845Y-94107000D01*
X186518524Y-94336890D01*
X186563175Y-94484099D01*
X186688359Y-94746920D01*
X186862412Y-94980269D01*
X187078645Y-95175178D01*
X187195523Y-95244799D01*
X187130986Y-95279294D01*
X186904866Y-95464866D01*
X186768523Y-95631000D01*
X154202465Y-95631000D01*
X154160256Y-95602797D01*
X153971898Y-95524776D01*
X153771939Y-95485002D01*
X153568061Y-95485002D01*
X153368102Y-95524776D01*
X153179744Y-95602797D01*
X153137532Y-95631002D01*
X142156657Y-95631002D01*
X142112997Y-95626702D01*
X142069337Y-95631002D01*
X142069331Y-95631002D01*
X141971922Y-95640596D01*
X141938722Y-95643866D01*
X141837056Y-95674706D01*
X141771147Y-95694699D01*
X141616707Y-95777249D01*
X141481339Y-95888343D01*
X141453499Y-95922266D01*
X132740000Y-104635765D01*
X132740000Y-96918212D01*
X133485000Y-96918212D01*
X133485000Y-97141788D01*
X133528617Y-97361067D01*
X133614176Y-97567624D01*
X133738388Y-97753520D01*
X133896480Y-97911612D01*
X134082376Y-98035824D01*
X134288933Y-98121383D01*
X134508212Y-98165000D01*
X134731788Y-98165000D01*
X134951067Y-98121383D01*
X135157624Y-98035824D01*
X135343520Y-97911612D01*
X135501612Y-97753520D01*
X135625824Y-97567624D01*
X135711383Y-97361067D01*
X135755000Y-97141788D01*
X135755000Y-96918212D01*
X135711383Y-96698933D01*
X135625824Y-96492376D01*
X135501612Y-96306480D01*
X135343520Y-96148388D01*
X135157624Y-96024176D01*
X134951067Y-95938617D01*
X134731788Y-95895000D01*
X134508212Y-95895000D01*
X134288933Y-95938617D01*
X134082376Y-96024176D01*
X133896480Y-96148388D01*
X133738388Y-96306480D01*
X133614176Y-96492376D01*
X133528617Y-96698933D01*
X133485000Y-96918212D01*
X132740000Y-96918212D01*
X132740000Y-88938212D01*
X133485000Y-88938212D01*
X133485000Y-89161788D01*
X133528617Y-89381067D01*
X133614176Y-89587624D01*
X133738388Y-89773520D01*
X133896480Y-89931612D01*
X134082376Y-90055824D01*
X134288933Y-90141383D01*
X134508212Y-90185000D01*
X134731788Y-90185000D01*
X134951067Y-90141383D01*
X135157624Y-90055824D01*
X135343520Y-89931612D01*
X135501612Y-89773520D01*
X135625824Y-89587624D01*
X135711383Y-89381067D01*
X135755000Y-89161788D01*
X135755000Y-88938212D01*
X135711383Y-88718933D01*
X135625824Y-88512376D01*
X135501612Y-88326480D01*
X135343520Y-88168388D01*
X135157624Y-88044176D01*
X134951067Y-87958617D01*
X134731788Y-87915000D01*
X134508212Y-87915000D01*
X134288933Y-87958617D01*
X134082376Y-88044176D01*
X133896480Y-88168388D01*
X133738388Y-88326480D01*
X133614176Y-88512376D01*
X133528617Y-88718933D01*
X133485000Y-88938212D01*
X132740000Y-88938212D01*
X132740000Y-86360000D01*
X186467815Y-86360000D01*
X186496487Y-86651111D01*
X186581401Y-86931034D01*
X186719294Y-87189014D01*
X186904866Y-87415134D01*
X187130986Y-87600706D01*
X187185791Y-87630000D01*
X187130986Y-87659294D01*
X186904866Y-87844866D01*
X186719294Y-88070986D01*
X186581401Y-88328966D01*
X186496487Y-88608889D01*
X186467815Y-88900000D01*
X186496487Y-89191111D01*
X186581401Y-89471034D01*
X186719294Y-89729014D01*
X186904866Y-89955134D01*
X187130986Y-90140706D01*
X187185791Y-90170000D01*
X187130986Y-90199294D01*
X186904866Y-90384866D01*
X186719294Y-90610986D01*
X186581401Y-90868966D01*
X186496487Y-91148889D01*
X186467815Y-91440000D01*
X186496487Y-91731111D01*
X186581401Y-92011034D01*
X186719294Y-92269014D01*
X186904866Y-92495134D01*
X187130986Y-92680706D01*
X187195523Y-92715201D01*
X187078645Y-92784822D01*
X186862412Y-92979731D01*
X186688359Y-93213080D01*
X186563175Y-93475901D01*
X186518524Y-93623110D01*
X186639845Y-93853000D01*
X187833000Y-93853000D01*
X187833000Y-93833000D01*
X188087000Y-93833000D01*
X188087000Y-93853000D01*
X190373000Y-93853000D01*
X190373000Y-93833000D01*
X190627000Y-93833000D01*
X190627000Y-93853000D01*
X191820155Y-93853000D01*
X191941476Y-93623110D01*
X191896825Y-93475901D01*
X191771641Y-93213080D01*
X191597588Y-92979731D01*
X191381355Y-92784822D01*
X191264477Y-92715201D01*
X191329014Y-92680706D01*
X191555134Y-92495134D01*
X191740706Y-92269014D01*
X191878599Y-92011034D01*
X191963513Y-91731111D01*
X191992185Y-91440000D01*
X191963513Y-91148889D01*
X191878599Y-90868966D01*
X191740706Y-90610986D01*
X191555134Y-90384866D01*
X191329014Y-90199294D01*
X191274209Y-90170000D01*
X191329014Y-90140706D01*
X191555134Y-89955134D01*
X191740706Y-89729014D01*
X191878599Y-89471034D01*
X191963513Y-89191111D01*
X191992185Y-88900000D01*
X191963513Y-88608889D01*
X191878599Y-88328966D01*
X191740706Y-88070986D01*
X191555134Y-87844866D01*
X191329014Y-87659294D01*
X191274209Y-87630000D01*
X191329014Y-87600706D01*
X191555134Y-87415134D01*
X191740706Y-87189014D01*
X191878599Y-86931034D01*
X191963513Y-86651111D01*
X191992185Y-86360000D01*
X191963513Y-86068889D01*
X191878599Y-85788966D01*
X191740706Y-85530986D01*
X191555134Y-85304866D01*
X191329014Y-85119294D01*
X191274209Y-85090000D01*
X191329014Y-85060706D01*
X191555134Y-84875134D01*
X191740706Y-84649014D01*
X191878599Y-84391034D01*
X191963513Y-84111111D01*
X191992185Y-83820000D01*
X191963513Y-83528889D01*
X191878599Y-83248966D01*
X191740706Y-82990986D01*
X191555134Y-82764866D01*
X191329014Y-82579294D01*
X191071034Y-82441401D01*
X190791111Y-82356487D01*
X190572950Y-82335000D01*
X190427050Y-82335000D01*
X190208889Y-82356487D01*
X189928966Y-82441401D01*
X189670986Y-82579294D01*
X189444866Y-82764866D01*
X189420393Y-82794687D01*
X189399502Y-82725820D01*
X189340537Y-82615506D01*
X189261185Y-82518815D01*
X189164494Y-82439463D01*
X189054180Y-82380498D01*
X188934482Y-82344188D01*
X188810000Y-82331928D01*
X187110000Y-82331928D01*
X186985518Y-82344188D01*
X186865820Y-82380498D01*
X186755506Y-82439463D01*
X186658815Y-82518815D01*
X186579463Y-82615506D01*
X186520498Y-82725820D01*
X186484188Y-82845518D01*
X186471928Y-82970000D01*
X186471928Y-84670000D01*
X186484188Y-84794482D01*
X186520498Y-84914180D01*
X186579463Y-85024494D01*
X186658815Y-85121185D01*
X186755506Y-85200537D01*
X186865820Y-85259502D01*
X186934687Y-85280393D01*
X186904866Y-85304866D01*
X186719294Y-85530986D01*
X186581401Y-85788966D01*
X186496487Y-86068889D01*
X186467815Y-86360000D01*
X132740000Y-86360000D01*
X132740000Y-80416061D01*
X157969008Y-80416061D01*
X157969008Y-80619939D01*
X158008782Y-80819898D01*
X158086803Y-81008256D01*
X158200071Y-81177774D01*
X158344234Y-81321937D01*
X158513752Y-81435205D01*
X158702110Y-81513226D01*
X158902069Y-81553000D01*
X159105947Y-81553000D01*
X159305906Y-81513226D01*
X159494264Y-81435205D01*
X159663782Y-81321937D01*
X159807945Y-81177774D01*
X159921213Y-81008256D01*
X159999234Y-80819898D01*
X160039008Y-80619939D01*
X160039008Y-80416061D01*
X159999234Y-80216102D01*
X159921213Y-80027744D01*
X159807945Y-79858226D01*
X159766008Y-79816289D01*
X159766008Y-77122398D01*
X162024663Y-77122398D01*
X162024663Y-77326276D01*
X162064437Y-77526235D01*
X162142458Y-77714593D01*
X162255726Y-77884111D01*
X162399889Y-78028274D01*
X162569407Y-78141542D01*
X162757765Y-78219563D01*
X162957724Y-78259337D01*
X163161602Y-78259337D01*
X163361561Y-78219563D01*
X163549919Y-78141542D01*
X163719437Y-78028274D01*
X163863600Y-77884111D01*
X163976868Y-77714593D01*
X164054889Y-77526235D01*
X164094663Y-77326276D01*
X164094663Y-77268100D01*
X164117422Y-77249422D01*
X164212645Y-77133392D01*
X164283402Y-77001015D01*
X164326974Y-76857378D01*
X164338000Y-76745426D01*
X164338000Y-76745423D01*
X164341686Y-76708000D01*
X164338000Y-76670577D01*
X164338000Y-76393711D01*
X164379937Y-76351774D01*
X164493205Y-76182256D01*
X164571226Y-75993898D01*
X164611000Y-75793939D01*
X164611000Y-75590061D01*
X164571226Y-75390102D01*
X164493205Y-75201744D01*
X164379937Y-75032226D01*
X164235774Y-74888063D01*
X164066256Y-74774795D01*
X163877898Y-74696774D01*
X163677939Y-74657000D01*
X163474061Y-74657000D01*
X163274102Y-74696774D01*
X163085744Y-74774795D01*
X162916226Y-74888063D01*
X162772063Y-75032226D01*
X162658795Y-75201744D01*
X162580774Y-75390102D01*
X162541000Y-75590061D01*
X162541000Y-75793939D01*
X162580774Y-75993898D01*
X162658795Y-76182256D01*
X162704770Y-76251062D01*
X162569407Y-76307132D01*
X162399889Y-76420400D01*
X162255726Y-76564563D01*
X162142458Y-76734081D01*
X162064437Y-76922439D01*
X162024663Y-77122398D01*
X159766008Y-77122398D01*
X159766008Y-73213622D01*
X160545631Y-72434000D01*
X160604939Y-72434000D01*
X160804898Y-72394226D01*
X160993256Y-72316205D01*
X161162774Y-72202937D01*
X161306937Y-72058774D01*
X161405753Y-71910885D01*
X161496480Y-72001612D01*
X161682376Y-72125824D01*
X161888933Y-72211383D01*
X162108212Y-72255000D01*
X162331788Y-72255000D01*
X162551067Y-72211383D01*
X162757624Y-72125824D01*
X162943520Y-72001612D01*
X163101612Y-71843520D01*
X163225824Y-71657624D01*
X163311383Y-71451067D01*
X163352665Y-71243526D01*
X191243000Y-71243526D01*
X191243000Y-72056474D01*
X191401598Y-72853802D01*
X191712700Y-73604868D01*
X192164350Y-74280809D01*
X192739191Y-74855650D01*
X193415132Y-75307300D01*
X194166198Y-75618402D01*
X194963526Y-75777000D01*
X195776474Y-75777000D01*
X196573802Y-75618402D01*
X197324868Y-75307300D01*
X198000809Y-74855650D01*
X198575650Y-74280809D01*
X199027300Y-73604868D01*
X199338402Y-72853802D01*
X199497000Y-72056474D01*
X199497000Y-71243526D01*
X199338402Y-70446198D01*
X199027300Y-69695132D01*
X198575650Y-69019191D01*
X198000809Y-68444350D01*
X197324868Y-67992700D01*
X196573802Y-67681598D01*
X195776474Y-67523000D01*
X194963526Y-67523000D01*
X194166198Y-67681598D01*
X193415132Y-67992700D01*
X192739191Y-68444350D01*
X192164350Y-69019191D01*
X191712700Y-69695132D01*
X191401598Y-70446198D01*
X191243000Y-71243526D01*
X163352665Y-71243526D01*
X163355000Y-71231788D01*
X163355000Y-71008212D01*
X163311383Y-70788933D01*
X163225824Y-70582376D01*
X163101612Y-70396480D01*
X162943520Y-70238388D01*
X162757624Y-70114176D01*
X162551067Y-70028617D01*
X162331788Y-69985000D01*
X162108212Y-69985000D01*
X161888933Y-70028617D01*
X161682376Y-70114176D01*
X161496480Y-70238388D01*
X161338388Y-70396480D01*
X161214176Y-70582376D01*
X161195405Y-70627694D01*
X161162774Y-70595063D01*
X160993256Y-70481795D01*
X160804898Y-70403774D01*
X160604939Y-70364000D01*
X160401061Y-70364000D01*
X160201102Y-70403774D01*
X160012744Y-70481795D01*
X159843226Y-70595063D01*
X159699063Y-70739226D01*
X159585795Y-70908744D01*
X159507774Y-71097102D01*
X159468000Y-71297061D01*
X159468000Y-71356369D01*
X158491662Y-72332708D01*
X158462586Y-72356570D01*
X158431683Y-72394226D01*
X158367363Y-72472600D01*
X158329543Y-72543357D01*
X158296606Y-72604978D01*
X158253034Y-72748615D01*
X158242674Y-72853802D01*
X158238322Y-72897992D01*
X158242008Y-72935415D01*
X158242009Y-79816288D01*
X158200071Y-79858226D01*
X158086803Y-80027744D01*
X158008782Y-80216102D01*
X157969008Y-80416061D01*
X132740000Y-80416061D01*
X132740000Y-71243526D01*
X133243000Y-71243526D01*
X133243000Y-72056474D01*
X133401598Y-72853802D01*
X133712700Y-73604868D01*
X134164350Y-74280809D01*
X134739191Y-74855650D01*
X135415132Y-75307300D01*
X136166198Y-75618402D01*
X136963526Y-75777000D01*
X137776474Y-75777000D01*
X138573802Y-75618402D01*
X139324868Y-75307300D01*
X140000809Y-74855650D01*
X140575650Y-74280809D01*
X141027300Y-73604868D01*
X141338402Y-72853802D01*
X141497000Y-72056474D01*
X141497000Y-71243526D01*
X141450194Y-71008212D01*
X156685000Y-71008212D01*
X156685000Y-71231788D01*
X156728617Y-71451067D01*
X156814176Y-71657624D01*
X156938388Y-71843520D01*
X157096480Y-72001612D01*
X157282376Y-72125824D01*
X157488933Y-72211383D01*
X157708212Y-72255000D01*
X157931788Y-72255000D01*
X158151067Y-72211383D01*
X158357624Y-72125824D01*
X158543520Y-72001612D01*
X158701612Y-71843520D01*
X158825824Y-71657624D01*
X158911383Y-71451067D01*
X158955000Y-71231788D01*
X158955000Y-71008212D01*
X158911383Y-70788933D01*
X158825824Y-70582376D01*
X158701612Y-70396480D01*
X158543520Y-70238388D01*
X158357624Y-70114176D01*
X158151067Y-70028617D01*
X157931788Y-69985000D01*
X157708212Y-69985000D01*
X157488933Y-70028617D01*
X157282376Y-70114176D01*
X157096480Y-70238388D01*
X156938388Y-70396480D01*
X156814176Y-70582376D01*
X156728617Y-70788933D01*
X156685000Y-71008212D01*
X141450194Y-71008212D01*
X141338402Y-70446198D01*
X141027300Y-69695132D01*
X140575650Y-69019191D01*
X140000809Y-68444350D01*
X139324868Y-67992700D01*
X138573802Y-67681598D01*
X137776474Y-67523000D01*
X136963526Y-67523000D01*
X136166198Y-67681598D01*
X135415132Y-67992700D01*
X134739191Y-68444350D01*
X134164350Y-69019191D01*
X133712700Y-69695132D01*
X133401598Y-70446198D01*
X133243000Y-71243526D01*
X132740000Y-71243526D01*
X132740000Y-66700000D01*
X200000001Y-66700000D01*
X200000000Y-126340000D01*
X200000000Y-126340000D01*
G37*
X200000000Y-126340000D02*
X132740000Y-126340000D01*
X132740000Y-115625740D01*
X132754149Y-115633303D01*
X132820058Y-115653296D01*
X132921724Y-115684136D01*
X132954924Y-115687406D01*
X133052333Y-115697000D01*
X133052339Y-115697000D01*
X133095999Y-115701300D01*
X133139659Y-115697000D01*
X138657765Y-115697000D01*
X140994160Y-118033395D01*
X140938815Y-118078815D01*
X140859463Y-118175506D01*
X140800498Y-118285820D01*
X140785919Y-118333880D01*
X140575650Y-118019191D01*
X140000809Y-117444350D01*
X139324868Y-116992700D01*
X138573802Y-116681598D01*
X137776474Y-116523000D01*
X136963526Y-116523000D01*
X136166198Y-116681598D01*
X135415132Y-116992700D01*
X134739191Y-117444350D01*
X134164350Y-118019191D01*
X133712700Y-118695132D01*
X133401598Y-119446198D01*
X133243000Y-120243526D01*
X133243000Y-121056474D01*
X133401598Y-121853802D01*
X133712700Y-122604868D01*
X134164350Y-123280809D01*
X134739191Y-123855650D01*
X135415132Y-124307300D01*
X136166198Y-124618402D01*
X136963526Y-124777000D01*
X137776474Y-124777000D01*
X138573802Y-124618402D01*
X139324868Y-124307300D01*
X140000809Y-123855650D01*
X140575650Y-123280809D01*
X140968935Y-122692217D01*
X140999294Y-122749014D01*
X141184866Y-122975134D01*
X141410986Y-123160706D01*
X141668966Y-123298599D01*
X141948889Y-123383513D01*
X142167050Y-123405000D01*
X142312950Y-123405000D01*
X142531111Y-123383513D01*
X142811034Y-123298599D01*
X143069014Y-123160706D01*
X143295134Y-122975134D01*
X143480706Y-122749014D01*
X143510000Y-122694209D01*
X143539294Y-122749014D01*
X143724866Y-122975134D01*
X143950986Y-123160706D01*
X144208966Y-123298599D01*
X144488889Y-123383513D01*
X144707050Y-123405000D01*
X144852950Y-123405000D01*
X145071111Y-123383513D01*
X145351034Y-123298599D01*
X145609014Y-123160706D01*
X145835134Y-122975134D01*
X146020706Y-122749014D01*
X146055201Y-122684477D01*
X146124822Y-122801355D01*
X146319731Y-123017588D01*
X146553080Y-123191641D01*
X146815901Y-123316825D01*
X146963110Y-123361476D01*
X147193000Y-123240155D01*
X147193000Y-122047000D01*
X147173000Y-122047000D01*
X147173000Y-121793000D01*
X147193000Y-121793000D01*
X147193000Y-121773000D01*
X147447000Y-121773000D01*
X147447000Y-121793000D01*
X147467000Y-121793000D01*
X147467000Y-122047000D01*
X147447000Y-122047000D01*
X147447000Y-123240155D01*
X147676890Y-123361476D01*
X147824099Y-123316825D01*
X148086920Y-123191641D01*
X148320269Y-123017588D01*
X148515178Y-122801355D01*
X148584799Y-122684477D01*
X148619294Y-122749014D01*
X148804866Y-122975134D01*
X149030986Y-123160706D01*
X149288966Y-123298599D01*
X149568889Y-123383513D01*
X149787050Y-123405000D01*
X149932950Y-123405000D01*
X150151111Y-123383513D01*
X150431034Y-123298599D01*
X150689014Y-123160706D01*
X150915134Y-122975134D01*
X151100706Y-122749014D01*
X151130000Y-122694209D01*
X151159294Y-122749014D01*
X151344866Y-122975134D01*
X151570986Y-123160706D01*
X151828966Y-123298599D01*
X152108889Y-123383513D01*
X152327050Y-123405000D01*
X152472950Y-123405000D01*
X152691111Y-123383513D01*
X152971034Y-123298599D01*
X153229014Y-123160706D01*
X153455134Y-122975134D01*
X153640706Y-122749014D01*
X153670000Y-122694209D01*
X153699294Y-122749014D01*
X153884866Y-122975134D01*
X154110986Y-123160706D01*
X154368966Y-123298599D01*
X154648889Y-123383513D01*
X154867050Y-123405000D01*
X155012950Y-123405000D01*
X155231111Y-123383513D01*
X155511034Y-123298599D01*
X155769014Y-123160706D01*
X155995134Y-122975134D01*
X156180706Y-122749014D01*
X156210000Y-122694209D01*
X156239294Y-122749014D01*
X156424866Y-122975134D01*
X156650986Y-123160706D01*
X156908966Y-123298599D01*
X157188889Y-123383513D01*
X157407050Y-123405000D01*
X157552950Y-123405000D01*
X157771111Y-123383513D01*
X158051034Y-123298599D01*
X158309014Y-123160706D01*
X158535134Y-122975134D01*
X158720706Y-122749014D01*
X158750000Y-122694209D01*
X158779294Y-122749014D01*
X158964866Y-122975134D01*
X159190986Y-123160706D01*
X159448966Y-123298599D01*
X159728889Y-123383513D01*
X159947050Y-123405000D01*
X160092950Y-123405000D01*
X160311111Y-123383513D01*
X160591034Y-123298599D01*
X160849014Y-123160706D01*
X161075134Y-122975134D01*
X161260706Y-122749014D01*
X161290000Y-122694209D01*
X161319294Y-122749014D01*
X161504866Y-122975134D01*
X161730986Y-123160706D01*
X161988966Y-123298599D01*
X162268889Y-123383513D01*
X162487050Y-123405000D01*
X162632950Y-123405000D01*
X162851111Y-123383513D01*
X163131034Y-123298599D01*
X163389014Y-123160706D01*
X163615134Y-122975134D01*
X163800706Y-122749014D01*
X163835201Y-122684477D01*
X163904822Y-122801355D01*
X164099731Y-123017588D01*
X164333080Y-123191641D01*
X164595901Y-123316825D01*
X164743110Y-123361476D01*
X164973000Y-123240155D01*
X164973000Y-122047000D01*
X164953000Y-122047000D01*
X164953000Y-121793000D01*
X164973000Y-121793000D01*
X164973000Y-121773000D01*
X165227000Y-121773000D01*
X165227000Y-121793000D01*
X165247000Y-121793000D01*
X165247000Y-122047000D01*
X165227000Y-122047000D01*
X165227000Y-123240155D01*
X165456890Y-123361476D01*
X165604099Y-123316825D01*
X165866920Y-123191641D01*
X166100269Y-123017588D01*
X166295178Y-122801355D01*
X166364799Y-122684477D01*
X166399294Y-122749014D01*
X166584866Y-122975134D01*
X166810986Y-123160706D01*
X167068966Y-123298599D01*
X167348889Y-123383513D01*
X167567050Y-123405000D01*
X167712950Y-123405000D01*
X167931111Y-123383513D01*
X168211034Y-123298599D01*
X168469014Y-123160706D01*
X168695134Y-122975134D01*
X168880706Y-122749014D01*
X168910000Y-122694209D01*
X168939294Y-122749014D01*
X169124866Y-122975134D01*
X169350986Y-123160706D01*
X169608966Y-123298599D01*
X169888889Y-123383513D01*
X170107050Y-123405000D01*
X170252950Y-123405000D01*
X170471111Y-123383513D01*
X170751034Y-123298599D01*
X171009014Y-123160706D01*
X171235134Y-122975134D01*
X171420706Y-122749014D01*
X171450000Y-122694209D01*
X171479294Y-122749014D01*
X171664866Y-122975134D01*
X171890986Y-123160706D01*
X172148966Y-123298599D01*
X172428889Y-123383513D01*
X172647050Y-123405000D01*
X172792950Y-123405000D01*
X173011111Y-123383513D01*
X173291034Y-123298599D01*
X173549014Y-123160706D01*
X173775134Y-122975134D01*
X173960706Y-122749014D01*
X173990000Y-122694209D01*
X174019294Y-122749014D01*
X174204866Y-122975134D01*
X174430986Y-123160706D01*
X174688966Y-123298599D01*
X174968889Y-123383513D01*
X175187050Y-123405000D01*
X175332950Y-123405000D01*
X175551111Y-123383513D01*
X175831034Y-123298599D01*
X176089014Y-123160706D01*
X176315134Y-122975134D01*
X176500706Y-122749014D01*
X176535201Y-122684477D01*
X176604822Y-122801355D01*
X176799731Y-123017588D01*
X177033080Y-123191641D01*
X177295901Y-123316825D01*
X177443110Y-123361476D01*
X177673000Y-123240155D01*
X177673000Y-122047000D01*
X177653000Y-122047000D01*
X177653000Y-121793000D01*
X177673000Y-121793000D01*
X177673000Y-121773000D01*
X177927000Y-121773000D01*
X177927000Y-121793000D01*
X177947000Y-121793000D01*
X177947000Y-122047000D01*
X177927000Y-122047000D01*
X177927000Y-123240155D01*
X178156890Y-123361476D01*
X178304099Y-123316825D01*
X178566920Y-123191641D01*
X178800269Y-123017588D01*
X178995178Y-122801355D01*
X179064799Y-122684477D01*
X179099294Y-122749014D01*
X179284866Y-122975134D01*
X179510986Y-123160706D01*
X179768966Y-123298599D01*
X180048889Y-123383513D01*
X180267050Y-123405000D01*
X180412950Y-123405000D01*
X180631111Y-123383513D01*
X180911034Y-123298599D01*
X181169014Y-123160706D01*
X181395134Y-122975134D01*
X181580706Y-122749014D01*
X181610000Y-122694209D01*
X181639294Y-122749014D01*
X181824866Y-122975134D01*
X182050986Y-123160706D01*
X182308966Y-123298599D01*
X182588889Y-123383513D01*
X182807050Y-123405000D01*
X182952950Y-123405000D01*
X183171111Y-123383513D01*
X183451034Y-123298599D01*
X183709014Y-123160706D01*
X183935134Y-122975134D01*
X184120706Y-122749014D01*
X184150000Y-122694209D01*
X184179294Y-122749014D01*
X184364866Y-122975134D01*
X184590986Y-123160706D01*
X184848966Y-123298599D01*
X185128889Y-123383513D01*
X185347050Y-123405000D01*
X185492950Y-123405000D01*
X185711111Y-123383513D01*
X185991034Y-123298599D01*
X186249014Y-123160706D01*
X186475134Y-122975134D01*
X186660706Y-122749014D01*
X186690000Y-122694209D01*
X186719294Y-122749014D01*
X186904866Y-122975134D01*
X187130986Y-123160706D01*
X187388966Y-123298599D01*
X187668889Y-123383513D01*
X187887050Y-123405000D01*
X188032950Y-123405000D01*
X188251111Y-123383513D01*
X188531034Y-123298599D01*
X188789014Y-123160706D01*
X189015134Y-122975134D01*
X189200706Y-122749014D01*
X189230000Y-122694209D01*
X189259294Y-122749014D01*
X189444866Y-122975134D01*
X189670986Y-123160706D01*
X189928966Y-123298599D01*
X190208889Y-123383513D01*
X190427050Y-123405000D01*
X190572950Y-123405000D01*
X190791111Y-123383513D01*
X191071034Y-123298599D01*
X191329014Y-123160706D01*
X191555134Y-122975134D01*
X191740706Y-122749014D01*
X191771065Y-122692217D01*
X192164350Y-123280809D01*
X192739191Y-123855650D01*
X193415132Y-124307300D01*
X194166198Y-124618402D01*
X194963526Y-124777000D01*
X195776474Y-124777000D01*
X196573802Y-124618402D01*
X197324868Y-124307300D01*
X198000809Y-123855650D01*
X198575650Y-123280809D01*
X199027300Y-122604868D01*
X199338402Y-121853802D01*
X199497000Y-121056474D01*
X199497000Y-120243526D01*
X199338402Y-119446198D01*
X199027300Y-118695132D01*
X198575650Y-118019191D01*
X198000809Y-117444350D01*
X197324868Y-116992700D01*
X196573802Y-116681598D01*
X195776474Y-116523000D01*
X194963526Y-116523000D01*
X194166198Y-116681598D01*
X193415132Y-116992700D01*
X192739191Y-117444350D01*
X192164350Y-118019191D01*
X191765315Y-118616389D01*
X191695178Y-118498645D01*
X191500269Y-118282412D01*
X191266920Y-118108359D01*
X191004099Y-117983175D01*
X190856890Y-117938524D01*
X190627000Y-118059845D01*
X190627000Y-119253000D01*
X190647000Y-119253000D01*
X190647000Y-119507000D01*
X190627000Y-119507000D01*
X190627000Y-119527000D01*
X190373000Y-119527000D01*
X190373000Y-119507000D01*
X190353000Y-119507000D01*
X190353000Y-119253000D01*
X190373000Y-119253000D01*
X190373000Y-118059845D01*
X190143110Y-117938524D01*
X189995901Y-117983175D01*
X189733080Y-118108359D01*
X189499731Y-118282412D01*
X189304822Y-118498645D01*
X189235201Y-118615523D01*
X189200706Y-118550986D01*
X189015134Y-118324866D01*
X188789014Y-118139294D01*
X188531034Y-118001401D01*
X188251111Y-117916487D01*
X188032950Y-117895000D01*
X187887050Y-117895000D01*
X187668889Y-117916487D01*
X187388966Y-118001401D01*
X187130986Y-118139294D01*
X186904866Y-118324866D01*
X186719294Y-118550986D01*
X186690000Y-118605791D01*
X186660706Y-118550986D01*
X186475134Y-118324866D01*
X186249014Y-118139294D01*
X185991034Y-118001401D01*
X185711111Y-117916487D01*
X185492950Y-117895000D01*
X185347050Y-117895000D01*
X185128889Y-117916487D01*
X184848966Y-118001401D01*
X184590986Y-118139294D01*
X184364866Y-118324866D01*
X184179294Y-118550986D01*
X184150000Y-118605791D01*
X184120706Y-118550986D01*
X183935134Y-118324866D01*
X183709014Y-118139294D01*
X183451034Y-118001401D01*
X183171111Y-117916487D01*
X182952950Y-117895000D01*
X182807050Y-117895000D01*
X182588889Y-117916487D01*
X182308966Y-118001401D01*
X182050986Y-118139294D01*
X181824866Y-118324866D01*
X181639294Y-118550986D01*
X181610000Y-118605791D01*
X181580706Y-118550986D01*
X181395134Y-118324866D01*
X181169014Y-118139294D01*
X180911034Y-118001401D01*
X180631111Y-117916487D01*
X180412950Y-117895000D01*
X180267050Y-117895000D01*
X180048889Y-117916487D01*
X179768966Y-118001401D01*
X179510986Y-118139294D01*
X179284866Y-118324866D01*
X179099294Y-118550986D01*
X179070000Y-118605791D01*
X179040706Y-118550986D01*
X178855134Y-118324866D01*
X178629014Y-118139294D01*
X178371034Y-118001401D01*
X178091111Y-117916487D01*
X177872950Y-117895000D01*
X177727050Y-117895000D01*
X177508889Y-117916487D01*
X177228966Y-118001401D01*
X176970986Y-118139294D01*
X176744866Y-118324866D01*
X176559294Y-118550986D01*
X176530000Y-118605791D01*
X176500706Y-118550986D01*
X176315134Y-118324866D01*
X176089014Y-118139294D01*
X175831034Y-118001401D01*
X175551111Y-117916487D01*
X175332950Y-117895000D01*
X175187050Y-117895000D01*
X174968889Y-117916487D01*
X174688966Y-118001401D01*
X174430986Y-118139294D01*
X174204866Y-118324866D01*
X174019294Y-118550986D01*
X173990000Y-118605791D01*
X173960706Y-118550986D01*
X173775134Y-118324866D01*
X173549014Y-118139294D01*
X173291034Y-118001401D01*
X173011111Y-117916487D01*
X172792950Y-117895000D01*
X172647050Y-117895000D01*
X172428889Y-117916487D01*
X172262800Y-117966870D01*
X172262800Y-113187342D01*
X172426223Y-113236916D01*
X172646381Y-113258600D01*
X172793619Y-113258600D01*
X173013777Y-113236916D01*
X173296264Y-113151225D01*
X173556606Y-113012069D01*
X173784797Y-112824797D01*
X173972069Y-112596606D01*
X173990000Y-112563060D01*
X174007931Y-112596606D01*
X174195203Y-112824797D01*
X174423394Y-113012069D01*
X174683736Y-113151225D01*
X174966223Y-113236916D01*
X175186381Y-113258600D01*
X175333619Y-113258600D01*
X175553777Y-113236916D01*
X175836264Y-113151225D01*
X176096606Y-113012069D01*
X176324797Y-112824797D01*
X176512069Y-112596606D01*
X176530000Y-112563060D01*
X176547931Y-112596606D01*
X176735203Y-112824797D01*
X176963394Y-113012069D01*
X177223736Y-113151225D01*
X177506223Y-113236916D01*
X177726381Y-113258600D01*
X177873619Y-113258600D01*
X178026324Y-113243560D01*
X178664506Y-113881741D01*
X178692341Y-113915659D01*
X178827709Y-114026753D01*
X178982149Y-114109303D01*
X179048058Y-114129296D01*
X179149724Y-114160136D01*
X179182924Y-114163406D01*
X179280333Y-114173000D01*
X179280339Y-114173000D01*
X179323999Y-114177300D01*
X179367659Y-114173000D01*
X193523532Y-114173000D01*
X193565744Y-114201205D01*
X193754102Y-114279226D01*
X193954061Y-114319000D01*
X194157939Y-114319000D01*
X194357898Y-114279226D01*
X194546256Y-114201205D01*
X194715774Y-114087937D01*
X194859937Y-113943774D01*
X194973205Y-113774256D01*
X195051226Y-113585898D01*
X195091000Y-113385939D01*
X195091000Y-113182061D01*
X195051226Y-112982102D01*
X194973205Y-112793744D01*
X194859937Y-112624226D01*
X194715774Y-112480063D01*
X194546256Y-112366795D01*
X194357898Y-112288774D01*
X194157939Y-112249000D01*
X193954061Y-112249000D01*
X193754102Y-112288774D01*
X193565744Y-112366795D01*
X193523532Y-112395000D01*
X191859830Y-112395000D01*
X191891225Y-112336264D01*
X191976916Y-112053777D01*
X192005851Y-111760000D01*
X191976916Y-111466223D01*
X191891225Y-111183736D01*
X191752069Y-110923394D01*
X191564797Y-110695203D01*
X191336606Y-110507931D01*
X191303060Y-110490000D01*
X191336606Y-110472069D01*
X191564797Y-110284797D01*
X191752069Y-110056606D01*
X191891225Y-109796264D01*
X191976916Y-109513777D01*
X192005851Y-109220000D01*
X191976916Y-108926223D01*
X191891225Y-108643736D01*
X191752069Y-108383394D01*
X191564797Y-108155203D01*
X191336606Y-107967931D01*
X191076264Y-107828775D01*
X190793777Y-107743084D01*
X190573619Y-107721400D01*
X190426381Y-107721400D01*
X190206223Y-107743084D01*
X189923736Y-107828775D01*
X189663394Y-107967931D01*
X189435203Y-108155203D01*
X189247931Y-108383394D01*
X189230000Y-108416940D01*
X189212069Y-108383394D01*
X189024797Y-108155203D01*
X188796606Y-107967931D01*
X188536264Y-107828775D01*
X188253777Y-107743084D01*
X188033619Y-107721400D01*
X187886381Y-107721400D01*
X187666223Y-107743084D01*
X187383736Y-107828775D01*
X187123394Y-107967931D01*
X186895203Y-108155203D01*
X186707931Y-108383394D01*
X186690000Y-108416940D01*
X186672069Y-108383394D01*
X186484797Y-108155203D01*
X186256606Y-107967931D01*
X185996264Y-107828775D01*
X185713777Y-107743084D01*
X185493619Y-107721400D01*
X185346381Y-107721400D01*
X185126223Y-107743084D01*
X184843736Y-107828775D01*
X184583394Y-107967931D01*
X184355203Y-108155203D01*
X184167931Y-108383394D01*
X184150000Y-108416940D01*
X184132069Y-108383394D01*
X183944797Y-108155203D01*
X183716606Y-107967931D01*
X183456264Y-107828775D01*
X183173777Y-107743084D01*
X182953619Y-107721400D01*
X182806381Y-107721400D01*
X182586223Y-107743084D01*
X182303736Y-107828775D01*
X182043394Y-107967931D01*
X181815203Y-108155203D01*
X181627931Y-108383394D01*
X181610000Y-108416940D01*
X181592069Y-108383394D01*
X181404797Y-108155203D01*
X181176606Y-107967931D01*
X180916264Y-107828775D01*
X180633777Y-107743084D01*
X180413619Y-107721400D01*
X180266381Y-107721400D01*
X180046223Y-107743084D01*
X179763736Y-107828775D01*
X179503394Y-107967931D01*
X179275203Y-108155203D01*
X179087931Y-108383394D01*
X179064137Y-108427910D01*
X179006817Y-108331512D01*
X178810293Y-108113146D01*
X178574944Y-107937316D01*
X178309814Y-107810778D01*
X178159026Y-107765042D01*
X177927000Y-107886183D01*
X177927000Y-109093000D01*
X177947000Y-109093000D01*
X177947000Y-109347000D01*
X177927000Y-109347000D01*
X177927000Y-109367000D01*
X177673000Y-109367000D01*
X177673000Y-109347000D01*
X177653000Y-109347000D01*
X177653000Y-109093000D01*
X177673000Y-109093000D01*
X177673000Y-107886183D01*
X177440974Y-107765042D01*
X177290186Y-107810778D01*
X177025056Y-107937316D01*
X176789707Y-108113146D01*
X176593183Y-108331512D01*
X176535863Y-108427910D01*
X176512069Y-108383394D01*
X176324797Y-108155203D01*
X176096606Y-107967931D01*
X175836264Y-107828775D01*
X175553777Y-107743084D01*
X175333619Y-107721400D01*
X175186381Y-107721400D01*
X174966223Y-107743084D01*
X174683736Y-107828775D01*
X174423394Y-107967931D01*
X174195203Y-108155203D01*
X174007931Y-108383394D01*
X173990000Y-108416940D01*
X173972069Y-108383394D01*
X173784797Y-108155203D01*
X173556606Y-107967931D01*
X173296264Y-107828775D01*
X173013777Y-107743084D01*
X172793619Y-107721400D01*
X172646381Y-107721400D01*
X172426223Y-107743084D01*
X172143736Y-107828775D01*
X171883394Y-107967931D01*
X171655203Y-108155203D01*
X171467931Y-108383394D01*
X171450000Y-108416940D01*
X171432069Y-108383394D01*
X171244797Y-108155203D01*
X171016606Y-107967931D01*
X170756264Y-107828775D01*
X170473777Y-107743084D01*
X170253619Y-107721400D01*
X170106381Y-107721400D01*
X169886223Y-107743084D01*
X169603736Y-107828775D01*
X169343394Y-107967931D01*
X169115203Y-108155203D01*
X168927931Y-108383394D01*
X168910000Y-108416940D01*
X168892069Y-108383394D01*
X168704797Y-108155203D01*
X168476606Y-107967931D01*
X168216264Y-107828775D01*
X167933777Y-107743084D01*
X167713619Y-107721400D01*
X167566381Y-107721400D01*
X167346223Y-107743084D01*
X167063736Y-107828775D01*
X166803394Y-107967931D01*
X166575203Y-108155203D01*
X166387931Y-108383394D01*
X166370000Y-108416940D01*
X166352069Y-108383394D01*
X166164797Y-108155203D01*
X165936606Y-107967931D01*
X165676264Y-107828775D01*
X165393777Y-107743084D01*
X165173619Y-107721400D01*
X165026381Y-107721400D01*
X164806223Y-107743084D01*
X164523736Y-107828775D01*
X164263394Y-107967931D01*
X164035203Y-108155203D01*
X163847931Y-108383394D01*
X163830000Y-108416940D01*
X163812069Y-108383394D01*
X163624797Y-108155203D01*
X163396606Y-107967931D01*
X163136264Y-107828775D01*
X162853777Y-107743084D01*
X162633619Y-107721400D01*
X162486381Y-107721400D01*
X162266223Y-107743084D01*
X161983736Y-107828775D01*
X161723394Y-107967931D01*
X161495203Y-108155203D01*
X161307931Y-108383394D01*
X161290000Y-108416940D01*
X161272069Y-108383394D01*
X161084797Y-108155203D01*
X160856606Y-107967931D01*
X160596264Y-107828775D01*
X160313777Y-107743084D01*
X160093619Y-107721400D01*
X159946381Y-107721400D01*
X159726223Y-107743084D01*
X159443736Y-107828775D01*
X159183394Y-107967931D01*
X158955203Y-108155203D01*
X158767931Y-108383394D01*
X158750000Y-108416940D01*
X158732069Y-108383394D01*
X158544797Y-108155203D01*
X158316606Y-107967931D01*
X158056264Y-107828775D01*
X157773777Y-107743084D01*
X157553619Y-107721400D01*
X157406381Y-107721400D01*
X157186223Y-107743084D01*
X156903736Y-107828775D01*
X156643394Y-107967931D01*
X156415203Y-108155203D01*
X156227931Y-108383394D01*
X156204137Y-108427910D01*
X156146817Y-108331512D01*
X155950293Y-108113146D01*
X155714944Y-107937316D01*
X155449814Y-107810778D01*
X155299026Y-107765042D01*
X155067000Y-107886183D01*
X155067000Y-109093000D01*
X155087000Y-109093000D01*
X155087000Y-109347000D01*
X155067000Y-109347000D01*
X155067000Y-109367000D01*
X154813000Y-109367000D01*
X154813000Y-109347000D01*
X154793000Y-109347000D01*
X154793000Y-109093000D01*
X154813000Y-109093000D01*
X154813000Y-107886183D01*
X154580974Y-107765042D01*
X154430186Y-107810778D01*
X154165056Y-107937316D01*
X153929707Y-108113146D01*
X153733183Y-108331512D01*
X153675863Y-108427910D01*
X153652069Y-108383394D01*
X153464797Y-108155203D01*
X153236606Y-107967931D01*
X152976264Y-107828775D01*
X152693777Y-107743084D01*
X152473619Y-107721400D01*
X152436231Y-107721400D01*
X153223631Y-106934000D01*
X169438262Y-106934000D01*
X169475685Y-106937686D01*
X169513108Y-106934000D01*
X169513111Y-106934000D01*
X169625063Y-106922974D01*
X169768700Y-106879402D01*
X169901077Y-106808645D01*
X170017107Y-106713422D01*
X170040969Y-106684346D01*
X173994353Y-102730963D01*
X174023422Y-102707107D01*
X174118645Y-102591077D01*
X174189402Y-102458700D01*
X174232974Y-102315063D01*
X174233228Y-102312483D01*
X174285937Y-102259774D01*
X174399205Y-102090256D01*
X174477226Y-101901898D01*
X174517000Y-101701939D01*
X174517000Y-101498061D01*
X174477226Y-101298102D01*
X174399205Y-101109744D01*
X174285937Y-100940226D01*
X174141774Y-100796063D01*
X173972256Y-100682795D01*
X173783898Y-100604774D01*
X173583939Y-100565000D01*
X173380061Y-100565000D01*
X173180102Y-100604774D01*
X172991744Y-100682795D01*
X172974001Y-100694650D01*
X172956258Y-100682795D01*
X172767900Y-100604774D01*
X172567941Y-100565000D01*
X172364063Y-100565000D01*
X172164104Y-100604774D01*
X171975746Y-100682795D01*
X171958001Y-100694652D01*
X171940256Y-100682795D01*
X171751898Y-100604774D01*
X171551939Y-100565000D01*
X171348061Y-100565000D01*
X171148102Y-100604774D01*
X170959744Y-100682795D01*
X170790226Y-100796063D01*
X170646063Y-100940226D01*
X170532795Y-101109744D01*
X170454774Y-101298102D01*
X170415000Y-101498061D01*
X170415000Y-101557369D01*
X167578370Y-104394000D01*
X143801423Y-104394000D01*
X143764000Y-104390314D01*
X143726577Y-104394000D01*
X143726574Y-104394000D01*
X143614622Y-104405026D01*
X143470985Y-104448598D01*
X143409364Y-104481535D01*
X143338607Y-104519355D01*
X143255904Y-104587228D01*
X143222578Y-104614578D01*
X143198721Y-104643648D01*
X140203649Y-107638721D01*
X140174579Y-107662578D01*
X140150722Y-107691648D01*
X140150721Y-107691649D01*
X140079355Y-107778608D01*
X140008599Y-107910985D01*
X139965027Y-108054622D01*
X139950314Y-108204000D01*
X139954001Y-108241433D01*
X139954000Y-111316177D01*
X139950314Y-111353600D01*
X139954000Y-111391023D01*
X139954000Y-111391025D01*
X139965026Y-111502977D01*
X140008598Y-111646614D01*
X140008599Y-111646615D01*
X140079355Y-111778992D01*
X140102232Y-111806867D01*
X140174578Y-111895022D01*
X140203654Y-111918884D01*
X140557116Y-112272346D01*
X140580978Y-112301422D01*
X140697008Y-112396645D01*
X140738328Y-112418731D01*
X140738328Y-112623600D01*
X140750588Y-112748082D01*
X140786898Y-112867780D01*
X140845863Y-112978094D01*
X140925215Y-113074785D01*
X141021906Y-113154137D01*
X141132220Y-113213102D01*
X141251918Y-113249412D01*
X141376400Y-113261672D01*
X143103600Y-113261672D01*
X143228082Y-113249412D01*
X143347780Y-113213102D01*
X143458094Y-113154137D01*
X143554785Y-113074785D01*
X143634137Y-112978094D01*
X143693102Y-112867780D01*
X143708586Y-112816735D01*
X143715203Y-112824797D01*
X143943394Y-113012069D01*
X144203736Y-113151225D01*
X144486223Y-113236916D01*
X144706381Y-113258600D01*
X144853619Y-113258600D01*
X145073777Y-113236916D01*
X145356264Y-113151225D01*
X145616606Y-113012069D01*
X145643602Y-112989914D01*
X145643601Y-116054440D01*
X145639669Y-116094361D01*
X145643601Y-116134281D01*
X145643601Y-116134283D01*
X145655362Y-116253697D01*
X145701839Y-116406910D01*
X145777313Y-116548112D01*
X145878884Y-116671878D01*
X145909900Y-116697332D01*
X146599073Y-117386506D01*
X146624523Y-117417517D01*
X146748288Y-117519088D01*
X146889490Y-117594562D01*
X147042703Y-117641039D01*
X147162117Y-117652800D01*
X147162119Y-117652800D01*
X147202040Y-117656732D01*
X147241960Y-117652800D01*
X152063328Y-117652800D01*
X152305528Y-117895000D01*
X152272998Y-117895000D01*
X152272998Y-118059844D01*
X152043110Y-117938524D01*
X151895901Y-117983175D01*
X151633080Y-118108359D01*
X151399731Y-118282412D01*
X151204822Y-118498645D01*
X151135201Y-118615523D01*
X151100706Y-118550986D01*
X150915134Y-118324866D01*
X150689014Y-118139294D01*
X150431034Y-118001401D01*
X150151111Y-117916487D01*
X149932950Y-117895000D01*
X149787050Y-117895000D01*
X149568889Y-117916487D01*
X149288966Y-118001401D01*
X149030986Y-118139294D01*
X148804866Y-118324866D01*
X148619294Y-118550986D01*
X148590000Y-118605791D01*
X148560706Y-118550986D01*
X148375134Y-118324866D01*
X148149014Y-118139294D01*
X147891034Y-118001401D01*
X147611111Y-117916487D01*
X147392950Y-117895000D01*
X147247050Y-117895000D01*
X147028889Y-117916487D01*
X146748966Y-118001401D01*
X146490986Y-118139294D01*
X146264866Y-118324866D01*
X146079294Y-118550986D01*
X146050000Y-118605791D01*
X146020706Y-118550986D01*
X145835134Y-118324866D01*
X145609014Y-118139294D01*
X145351034Y-118001401D01*
X145071111Y-117916487D01*
X144852950Y-117895000D01*
X144707050Y-117895000D01*
X144488889Y-117916487D01*
X144208966Y-118001401D01*
X143950986Y-118139294D01*
X143724866Y-118324866D01*
X143700393Y-118354687D01*
X143679502Y-118285820D01*
X143620537Y-118175506D01*
X143541185Y-118078815D01*
X143444494Y-117999463D01*
X143334180Y-117940498D01*
X143214482Y-117904188D01*
X143120788Y-117894960D01*
X143116136Y-117847726D01*
X143116136Y-117847724D01*
X143065302Y-117680147D01*
X143052786Y-117656732D01*
X142982753Y-117525709D01*
X142871659Y-117390341D01*
X142837736Y-117362501D01*
X139685499Y-114210264D01*
X139657659Y-114176341D01*
X139522291Y-114065247D01*
X139367851Y-113982697D01*
X139200274Y-113931864D01*
X139069667Y-113919000D01*
X139069660Y-113919000D01*
X139026000Y-113914700D01*
X138982340Y-113919000D01*
X135850231Y-113919000D01*
X135854072Y-113880000D01*
X135851000Y-113315750D01*
X135692250Y-113157000D01*
X134493000Y-113157000D01*
X134493000Y-113177000D01*
X134239000Y-113177000D01*
X134239000Y-113157000D01*
X134219000Y-113157000D01*
X134219000Y-112903000D01*
X134239000Y-112903000D01*
X134239000Y-112883000D01*
X134493000Y-112883000D01*
X134493000Y-112903000D01*
X135692250Y-112903000D01*
X135851000Y-112744250D01*
X135854072Y-112180000D01*
X135841812Y-112055518D01*
X135805502Y-111935820D01*
X135746537Y-111825506D01*
X135667185Y-111728815D01*
X135570494Y-111649463D01*
X135460180Y-111590498D01*
X135391313Y-111569607D01*
X135421134Y-111545134D01*
X135606706Y-111319014D01*
X135744599Y-111061034D01*
X135829513Y-110781111D01*
X135858185Y-110490000D01*
X135829513Y-110198889D01*
X135744599Y-109918966D01*
X135606706Y-109660986D01*
X135421134Y-109434866D01*
X135195014Y-109249294D01*
X135140209Y-109220000D01*
X135195014Y-109190706D01*
X135421134Y-109005134D01*
X135606706Y-108779014D01*
X135744599Y-108521034D01*
X135829513Y-108241111D01*
X135858185Y-107950000D01*
X135829513Y-107658889D01*
X135744599Y-107378966D01*
X135606706Y-107120986D01*
X135421134Y-106894866D01*
X135195014Y-106709294D01*
X134937034Y-106571401D01*
X134657111Y-106486487D01*
X134438950Y-106465000D01*
X134293050Y-106465000D01*
X134074889Y-106486487D01*
X133794966Y-106571401D01*
X133536986Y-106709294D01*
X133477000Y-106758523D01*
X133477000Y-106413235D01*
X137884174Y-102006061D01*
X151365000Y-102006061D01*
X151365000Y-102209939D01*
X151404774Y-102409898D01*
X151482795Y-102598256D01*
X151596063Y-102767774D01*
X151740226Y-102911937D01*
X151909744Y-103025205D01*
X152098102Y-103103226D01*
X152298061Y-103143000D01*
X152501939Y-103143000D01*
X152701898Y-103103226D01*
X152890256Y-103025205D01*
X153046510Y-102920800D01*
X157849490Y-102920800D01*
X158005744Y-103025205D01*
X158194102Y-103103226D01*
X158394061Y-103143000D01*
X158597939Y-103143000D01*
X158797898Y-103103226D01*
X158986256Y-103025205D01*
X159155774Y-102911937D01*
X159299937Y-102767774D01*
X159413205Y-102598256D01*
X159491226Y-102409898D01*
X159531000Y-102209939D01*
X159531000Y-102006061D01*
X159491226Y-101806102D01*
X159413205Y-101617744D01*
X159299937Y-101448226D01*
X159155774Y-101304063D01*
X158986256Y-101190795D01*
X158797898Y-101112774D01*
X158597939Y-101073000D01*
X158394061Y-101073000D01*
X158194102Y-101112774D01*
X158005744Y-101190795D01*
X157849490Y-101295200D01*
X153046510Y-101295200D01*
X152890256Y-101190795D01*
X152701898Y-101112774D01*
X152501939Y-101073000D01*
X152298061Y-101073000D01*
X152098102Y-101112774D01*
X151909744Y-101190795D01*
X151740226Y-101304063D01*
X151596063Y-101448226D01*
X151482795Y-101617744D01*
X151404774Y-101806102D01*
X151365000Y-102006061D01*
X137884174Y-102006061D01*
X142481233Y-97409002D01*
X153137532Y-97409002D01*
X153179744Y-97437207D01*
X153368102Y-97515228D01*
X153568061Y-97555002D01*
X153771939Y-97555002D01*
X153971898Y-97515228D01*
X154160256Y-97437207D01*
X154202471Y-97409000D01*
X186768523Y-97409000D01*
X186904866Y-97575134D01*
X187130986Y-97760706D01*
X187388966Y-97898599D01*
X187668889Y-97983513D01*
X187887050Y-98005000D01*
X188032950Y-98005000D01*
X188251111Y-97983513D01*
X188531034Y-97898599D01*
X188789014Y-97760706D01*
X189015134Y-97575134D01*
X189200706Y-97349014D01*
X189230000Y-97294209D01*
X189259294Y-97349014D01*
X189444866Y-97575134D01*
X189670986Y-97760706D01*
X189928966Y-97898599D01*
X190208889Y-97983513D01*
X190427050Y-98005000D01*
X190572950Y-98005000D01*
X190791111Y-97983513D01*
X191071034Y-97898599D01*
X191329014Y-97760706D01*
X191555134Y-97575134D01*
X191740706Y-97349014D01*
X191878599Y-97091034D01*
X191963513Y-96811111D01*
X191992185Y-96520000D01*
X191963513Y-96228889D01*
X191878599Y-95948966D01*
X191740706Y-95690986D01*
X191555134Y-95464866D01*
X191329014Y-95279294D01*
X191264477Y-95244799D01*
X191381355Y-95175178D01*
X191597588Y-94980269D01*
X191771641Y-94746920D01*
X191896825Y-94484099D01*
X191941476Y-94336890D01*
X191820155Y-94107000D01*
X190627000Y-94107000D01*
X190627000Y-94127000D01*
X190373000Y-94127000D01*
X190373000Y-94107000D01*
X188087000Y-94107000D01*
X188087000Y-94127000D01*
X187833000Y-94127000D01*
X187833000Y-94107000D01*
X186639845Y-94107000D01*
X186518524Y-94336890D01*
X186563175Y-94484099D01*
X186688359Y-94746920D01*
X186862412Y-94980269D01*
X187078645Y-95175178D01*
X187195523Y-95244799D01*
X187130986Y-95279294D01*
X186904866Y-95464866D01*
X186768523Y-95631000D01*
X154202465Y-95631000D01*
X154160256Y-95602797D01*
X153971898Y-95524776D01*
X153771939Y-95485002D01*
X153568061Y-95485002D01*
X153368102Y-95524776D01*
X153179744Y-95602797D01*
X153137532Y-95631002D01*
X142156657Y-95631002D01*
X142112997Y-95626702D01*
X142069337Y-95631002D01*
X142069331Y-95631002D01*
X141971922Y-95640596D01*
X141938722Y-95643866D01*
X141837056Y-95674706D01*
X141771147Y-95694699D01*
X141616707Y-95777249D01*
X141481339Y-95888343D01*
X141453499Y-95922266D01*
X132740000Y-104635765D01*
X132740000Y-96918212D01*
X133485000Y-96918212D01*
X133485000Y-97141788D01*
X133528617Y-97361067D01*
X133614176Y-97567624D01*
X133738388Y-97753520D01*
X133896480Y-97911612D01*
X134082376Y-98035824D01*
X134288933Y-98121383D01*
X134508212Y-98165000D01*
X134731788Y-98165000D01*
X134951067Y-98121383D01*
X135157624Y-98035824D01*
X135343520Y-97911612D01*
X135501612Y-97753520D01*
X135625824Y-97567624D01*
X135711383Y-97361067D01*
X135755000Y-97141788D01*
X135755000Y-96918212D01*
X135711383Y-96698933D01*
X135625824Y-96492376D01*
X135501612Y-96306480D01*
X135343520Y-96148388D01*
X135157624Y-96024176D01*
X134951067Y-95938617D01*
X134731788Y-95895000D01*
X134508212Y-95895000D01*
X134288933Y-95938617D01*
X134082376Y-96024176D01*
X133896480Y-96148388D01*
X133738388Y-96306480D01*
X133614176Y-96492376D01*
X133528617Y-96698933D01*
X133485000Y-96918212D01*
X132740000Y-96918212D01*
X132740000Y-88938212D01*
X133485000Y-88938212D01*
X133485000Y-89161788D01*
X133528617Y-89381067D01*
X133614176Y-89587624D01*
X133738388Y-89773520D01*
X133896480Y-89931612D01*
X134082376Y-90055824D01*
X134288933Y-90141383D01*
X134508212Y-90185000D01*
X134731788Y-90185000D01*
X134951067Y-90141383D01*
X135157624Y-90055824D01*
X135343520Y-89931612D01*
X135501612Y-89773520D01*
X135625824Y-89587624D01*
X135711383Y-89381067D01*
X135755000Y-89161788D01*
X135755000Y-88938212D01*
X135711383Y-88718933D01*
X135625824Y-88512376D01*
X135501612Y-88326480D01*
X135343520Y-88168388D01*
X135157624Y-88044176D01*
X134951067Y-87958617D01*
X134731788Y-87915000D01*
X134508212Y-87915000D01*
X134288933Y-87958617D01*
X134082376Y-88044176D01*
X133896480Y-88168388D01*
X133738388Y-88326480D01*
X133614176Y-88512376D01*
X133528617Y-88718933D01*
X133485000Y-88938212D01*
X132740000Y-88938212D01*
X132740000Y-86360000D01*
X186467815Y-86360000D01*
X186496487Y-86651111D01*
X186581401Y-86931034D01*
X186719294Y-87189014D01*
X186904866Y-87415134D01*
X187130986Y-87600706D01*
X187185791Y-87630000D01*
X187130986Y-87659294D01*
X186904866Y-87844866D01*
X186719294Y-88070986D01*
X186581401Y-88328966D01*
X186496487Y-88608889D01*
X186467815Y-88900000D01*
X186496487Y-89191111D01*
X186581401Y-89471034D01*
X186719294Y-89729014D01*
X186904866Y-89955134D01*
X187130986Y-90140706D01*
X187185791Y-90170000D01*
X187130986Y-90199294D01*
X186904866Y-90384866D01*
X186719294Y-90610986D01*
X186581401Y-90868966D01*
X186496487Y-91148889D01*
X186467815Y-91440000D01*
X186496487Y-91731111D01*
X186581401Y-92011034D01*
X186719294Y-92269014D01*
X186904866Y-92495134D01*
X187130986Y-92680706D01*
X187195523Y-92715201D01*
X187078645Y-92784822D01*
X186862412Y-92979731D01*
X186688359Y-93213080D01*
X186563175Y-93475901D01*
X186518524Y-93623110D01*
X186639845Y-93853000D01*
X187833000Y-93853000D01*
X187833000Y-93833000D01*
X188087000Y-93833000D01*
X188087000Y-93853000D01*
X190373000Y-93853000D01*
X190373000Y-93833000D01*
X190627000Y-93833000D01*
X190627000Y-93853000D01*
X191820155Y-93853000D01*
X191941476Y-93623110D01*
X191896825Y-93475901D01*
X191771641Y-93213080D01*
X191597588Y-92979731D01*
X191381355Y-92784822D01*
X191264477Y-92715201D01*
X191329014Y-92680706D01*
X191555134Y-92495134D01*
X191740706Y-92269014D01*
X191878599Y-92011034D01*
X191963513Y-91731111D01*
X191992185Y-91440000D01*
X191963513Y-91148889D01*
X191878599Y-90868966D01*
X191740706Y-90610986D01*
X191555134Y-90384866D01*
X191329014Y-90199294D01*
X191274209Y-90170000D01*
X191329014Y-90140706D01*
X191555134Y-89955134D01*
X191740706Y-89729014D01*
X191878599Y-89471034D01*
X191963513Y-89191111D01*
X191992185Y-88900000D01*
X191963513Y-88608889D01*
X191878599Y-88328966D01*
X191740706Y-88070986D01*
X191555134Y-87844866D01*
X191329014Y-87659294D01*
X191274209Y-87630000D01*
X191329014Y-87600706D01*
X191555134Y-87415134D01*
X191740706Y-87189014D01*
X191878599Y-86931034D01*
X191963513Y-86651111D01*
X191992185Y-86360000D01*
X191963513Y-86068889D01*
X191878599Y-85788966D01*
X191740706Y-85530986D01*
X191555134Y-85304866D01*
X191329014Y-85119294D01*
X191274209Y-85090000D01*
X191329014Y-85060706D01*
X191555134Y-84875134D01*
X191740706Y-84649014D01*
X191878599Y-84391034D01*
X191963513Y-84111111D01*
X191992185Y-83820000D01*
X191963513Y-83528889D01*
X191878599Y-83248966D01*
X191740706Y-82990986D01*
X191555134Y-82764866D01*
X191329014Y-82579294D01*
X191071034Y-82441401D01*
X190791111Y-82356487D01*
X190572950Y-82335000D01*
X190427050Y-82335000D01*
X190208889Y-82356487D01*
X189928966Y-82441401D01*
X189670986Y-82579294D01*
X189444866Y-82764866D01*
X189420393Y-82794687D01*
X189399502Y-82725820D01*
X189340537Y-82615506D01*
X189261185Y-82518815D01*
X189164494Y-82439463D01*
X189054180Y-82380498D01*
X188934482Y-82344188D01*
X188810000Y-82331928D01*
X187110000Y-82331928D01*
X186985518Y-82344188D01*
X186865820Y-82380498D01*
X186755506Y-82439463D01*
X186658815Y-82518815D01*
X186579463Y-82615506D01*
X186520498Y-82725820D01*
X186484188Y-82845518D01*
X186471928Y-82970000D01*
X186471928Y-84670000D01*
X186484188Y-84794482D01*
X186520498Y-84914180D01*
X186579463Y-85024494D01*
X186658815Y-85121185D01*
X186755506Y-85200537D01*
X186865820Y-85259502D01*
X186934687Y-85280393D01*
X186904866Y-85304866D01*
X186719294Y-85530986D01*
X186581401Y-85788966D01*
X186496487Y-86068889D01*
X186467815Y-86360000D01*
X132740000Y-86360000D01*
X132740000Y-80416061D01*
X157969008Y-80416061D01*
X157969008Y-80619939D01*
X158008782Y-80819898D01*
X158086803Y-81008256D01*
X158200071Y-81177774D01*
X158344234Y-81321937D01*
X158513752Y-81435205D01*
X158702110Y-81513226D01*
X158902069Y-81553000D01*
X159105947Y-81553000D01*
X159305906Y-81513226D01*
X159494264Y-81435205D01*
X159663782Y-81321937D01*
X159807945Y-81177774D01*
X159921213Y-81008256D01*
X159999234Y-80819898D01*
X160039008Y-80619939D01*
X160039008Y-80416061D01*
X159999234Y-80216102D01*
X159921213Y-80027744D01*
X159807945Y-79858226D01*
X159766008Y-79816289D01*
X159766008Y-77122398D01*
X162024663Y-77122398D01*
X162024663Y-77326276D01*
X162064437Y-77526235D01*
X162142458Y-77714593D01*
X162255726Y-77884111D01*
X162399889Y-78028274D01*
X162569407Y-78141542D01*
X162757765Y-78219563D01*
X162957724Y-78259337D01*
X163161602Y-78259337D01*
X163361561Y-78219563D01*
X163549919Y-78141542D01*
X163719437Y-78028274D01*
X163863600Y-77884111D01*
X163976868Y-77714593D01*
X164054889Y-77526235D01*
X164094663Y-77326276D01*
X164094663Y-77268100D01*
X164117422Y-77249422D01*
X164212645Y-77133392D01*
X164283402Y-77001015D01*
X164326974Y-76857378D01*
X164338000Y-76745426D01*
X164338000Y-76745423D01*
X164341686Y-76708000D01*
X164338000Y-76670577D01*
X164338000Y-76393711D01*
X164379937Y-76351774D01*
X164493205Y-76182256D01*
X164571226Y-75993898D01*
X164611000Y-75793939D01*
X164611000Y-75590061D01*
X164571226Y-75390102D01*
X164493205Y-75201744D01*
X164379937Y-75032226D01*
X164235774Y-74888063D01*
X164066256Y-74774795D01*
X163877898Y-74696774D01*
X163677939Y-74657000D01*
X163474061Y-74657000D01*
X163274102Y-74696774D01*
X163085744Y-74774795D01*
X162916226Y-74888063D01*
X162772063Y-75032226D01*
X162658795Y-75201744D01*
X162580774Y-75390102D01*
X162541000Y-75590061D01*
X162541000Y-75793939D01*
X162580774Y-75993898D01*
X162658795Y-76182256D01*
X162704770Y-76251062D01*
X162569407Y-76307132D01*
X162399889Y-76420400D01*
X162255726Y-76564563D01*
X162142458Y-76734081D01*
X162064437Y-76922439D01*
X162024663Y-77122398D01*
X159766008Y-77122398D01*
X159766008Y-73213622D01*
X160545631Y-72434000D01*
X160604939Y-72434000D01*
X160804898Y-72394226D01*
X160993256Y-72316205D01*
X161162774Y-72202937D01*
X161306937Y-72058774D01*
X161405753Y-71910885D01*
X161496480Y-72001612D01*
X161682376Y-72125824D01*
X161888933Y-72211383D01*
X162108212Y-72255000D01*
X162331788Y-72255000D01*
X162551067Y-72211383D01*
X162757624Y-72125824D01*
X162943520Y-72001612D01*
X163101612Y-71843520D01*
X163225824Y-71657624D01*
X163311383Y-71451067D01*
X163352665Y-71243526D01*
X191243000Y-71243526D01*
X191243000Y-72056474D01*
X191401598Y-72853802D01*
X191712700Y-73604868D01*
X192164350Y-74280809D01*
X192739191Y-74855650D01*
X193415132Y-75307300D01*
X194166198Y-75618402D01*
X194963526Y-75777000D01*
X195776474Y-75777000D01*
X196573802Y-75618402D01*
X197324868Y-75307300D01*
X198000809Y-74855650D01*
X198575650Y-74280809D01*
X199027300Y-73604868D01*
X199338402Y-72853802D01*
X199497000Y-72056474D01*
X199497000Y-71243526D01*
X199338402Y-70446198D01*
X199027300Y-69695132D01*
X198575650Y-69019191D01*
X198000809Y-68444350D01*
X197324868Y-67992700D01*
X196573802Y-67681598D01*
X195776474Y-67523000D01*
X194963526Y-67523000D01*
X194166198Y-67681598D01*
X193415132Y-67992700D01*
X192739191Y-68444350D01*
X192164350Y-69019191D01*
X191712700Y-69695132D01*
X191401598Y-70446198D01*
X191243000Y-71243526D01*
X163352665Y-71243526D01*
X163355000Y-71231788D01*
X163355000Y-71008212D01*
X163311383Y-70788933D01*
X163225824Y-70582376D01*
X163101612Y-70396480D01*
X162943520Y-70238388D01*
X162757624Y-70114176D01*
X162551067Y-70028617D01*
X162331788Y-69985000D01*
X162108212Y-69985000D01*
X161888933Y-70028617D01*
X161682376Y-70114176D01*
X161496480Y-70238388D01*
X161338388Y-70396480D01*
X161214176Y-70582376D01*
X161195405Y-70627694D01*
X161162774Y-70595063D01*
X160993256Y-70481795D01*
X160804898Y-70403774D01*
X160604939Y-70364000D01*
X160401061Y-70364000D01*
X160201102Y-70403774D01*
X160012744Y-70481795D01*
X159843226Y-70595063D01*
X159699063Y-70739226D01*
X159585795Y-70908744D01*
X159507774Y-71097102D01*
X159468000Y-71297061D01*
X159468000Y-71356369D01*
X158491662Y-72332708D01*
X158462586Y-72356570D01*
X158431683Y-72394226D01*
X158367363Y-72472600D01*
X158329543Y-72543357D01*
X158296606Y-72604978D01*
X158253034Y-72748615D01*
X158242674Y-72853802D01*
X158238322Y-72897992D01*
X158242008Y-72935415D01*
X158242009Y-79816288D01*
X158200071Y-79858226D01*
X158086803Y-80027744D01*
X158008782Y-80216102D01*
X157969008Y-80416061D01*
X132740000Y-80416061D01*
X132740000Y-71243526D01*
X133243000Y-71243526D01*
X133243000Y-72056474D01*
X133401598Y-72853802D01*
X133712700Y-73604868D01*
X134164350Y-74280809D01*
X134739191Y-74855650D01*
X135415132Y-75307300D01*
X136166198Y-75618402D01*
X136963526Y-75777000D01*
X137776474Y-75777000D01*
X138573802Y-75618402D01*
X139324868Y-75307300D01*
X140000809Y-74855650D01*
X140575650Y-74280809D01*
X141027300Y-73604868D01*
X141338402Y-72853802D01*
X141497000Y-72056474D01*
X141497000Y-71243526D01*
X141450194Y-71008212D01*
X156685000Y-71008212D01*
X156685000Y-71231788D01*
X156728617Y-71451067D01*
X156814176Y-71657624D01*
X156938388Y-71843520D01*
X157096480Y-72001612D01*
X157282376Y-72125824D01*
X157488933Y-72211383D01*
X157708212Y-72255000D01*
X157931788Y-72255000D01*
X158151067Y-72211383D01*
X158357624Y-72125824D01*
X158543520Y-72001612D01*
X158701612Y-71843520D01*
X158825824Y-71657624D01*
X158911383Y-71451067D01*
X158955000Y-71231788D01*
X158955000Y-71008212D01*
X158911383Y-70788933D01*
X158825824Y-70582376D01*
X158701612Y-70396480D01*
X158543520Y-70238388D01*
X158357624Y-70114176D01*
X158151067Y-70028617D01*
X157931788Y-69985000D01*
X157708212Y-69985000D01*
X157488933Y-70028617D01*
X157282376Y-70114176D01*
X157096480Y-70238388D01*
X156938388Y-70396480D01*
X156814176Y-70582376D01*
X156728617Y-70788933D01*
X156685000Y-71008212D01*
X141450194Y-71008212D01*
X141338402Y-70446198D01*
X141027300Y-69695132D01*
X140575650Y-69019191D01*
X140000809Y-68444350D01*
X139324868Y-67992700D01*
X138573802Y-67681598D01*
X137776474Y-67523000D01*
X136963526Y-67523000D01*
X136166198Y-67681598D01*
X135415132Y-67992700D01*
X134739191Y-68444350D01*
X134164350Y-69019191D01*
X133712700Y-69695132D01*
X133401598Y-70446198D01*
X133243000Y-71243526D01*
X132740000Y-71243526D01*
X132740000Y-66700000D01*
X200000001Y-66700000D01*
X200000000Y-126340000D01*
G36*
X152527000Y-119253000D02*
G01*
X152547000Y-119253000D01*
X152547000Y-119507000D01*
X152527000Y-119507000D01*
X152527000Y-119527000D01*
X152273000Y-119527000D01*
X152273000Y-119507000D01*
X152253000Y-119507000D01*
X152253000Y-119253000D01*
X152273000Y-119253000D01*
X152273000Y-119233000D01*
X152527000Y-119233000D01*
X152527000Y-119253000D01*
X152527000Y-119253000D01*
G37*
X152527000Y-119253000D02*
X152547000Y-119253000D01*
X152547000Y-119507000D01*
X152527000Y-119507000D01*
X152527000Y-119527000D01*
X152273000Y-119527000D01*
X152273000Y-119507000D01*
X152253000Y-119507000D01*
X152253000Y-119253000D01*
X152273000Y-119253000D01*
X152273000Y-119233000D01*
X152527000Y-119233000D01*
X152527000Y-119253000D01*
M02*
