M48
METRIC,TZ
T1C0.400
T2C1.000
T3C1.016
T4C2.750
%
G90
G05
T1
X139065Y-112395
X139700Y-104140
X143510Y-116840
X144780Y-82550
X144780Y-124460
X148082Y-115824
X149225Y-103505
X150622Y-95250
X151765Y-76200
X152400Y-102108
X152654Y-80772
X153416Y-76962
X158496Y-102108
X159004Y-80518
X160503Y-71399
X163060Y-77224
X163576Y-75692
X164465Y-97790
X164465Y-103505
X165100Y-125730
X166370Y-87122
X168910Y-76200
X170942Y-102362
X170942Y-104902
X170942Y-103632
X173355Y-116205
X177165Y-84455
X177165Y-89535
X177800Y-103505
X193040Y-111760
X196850Y-88900
X196850Y-98425
X197358Y-113284
X198755Y-109220
X199390Y-125730
T2
X187960Y-88900
X187960Y-91440
X187960Y-93980
X187960Y-96520
X187960Y-99060
X187960Y-101600
X190500Y-88900
X190500Y-91440
X190500Y-93980
X190500Y-96520
X190500Y-99060
X190500Y-101600
X142240Y-119380
X142240Y-121920
X144780Y-119380
X144780Y-121920
X147320Y-119380
X147320Y-121920
X149860Y-119380
X149860Y-121920
X152400Y-119380
X152400Y-121920
X154940Y-119380
X154940Y-121920
X157480Y-119380
X157480Y-121920
X160020Y-119380
X160020Y-121920
X162560Y-119380
X162560Y-121920
X165100Y-119380
X165100Y-121920
X167640Y-119380
X167640Y-121920
X170180Y-119380
X170180Y-121920
X172720Y-119380
X172720Y-121920
X175260Y-119380
X175260Y-121920
X177800Y-119380
X177800Y-121920
X180340Y-119380
X180340Y-121920
X182880Y-119380
X182880Y-121920
X185420Y-119380
X185420Y-121920
X187960Y-119380
X187960Y-121920
X190500Y-119380
X190500Y-121920
X134366Y-107950
X134366Y-110490
X134366Y-113030
T3
X142240Y-109220
X142240Y-111760
X144780Y-109220
X144780Y-111760
X147320Y-109220
X147320Y-111760
X149860Y-109220
X149860Y-111760
X152400Y-109220
X152400Y-111760
X154940Y-109220
X154940Y-111760
X157480Y-109220
X157480Y-111760
X160020Y-109220
X160020Y-111760
X162560Y-109220
X162560Y-111760
X165100Y-109220
X165100Y-111760
X167640Y-109220
X167640Y-111760
X170180Y-109220
X170180Y-111760
X172720Y-109220
X172720Y-111760
X175260Y-109220
X175260Y-111760
X177800Y-109220
X177800Y-111760
X180340Y-109220
X180340Y-111760
X182880Y-109220
X182880Y-111760
X185420Y-109220
X185420Y-111760
X187960Y-109220
X187960Y-111760
X190500Y-109220
X190500Y-111760
T4
X137370Y-120650
X195370Y-71650
X137370Y-71650
X195370Y-120650
T0
M30
