M48
; DRILL file {KiCad (5.1.2)-1} date 24.8.2019 17.40.02
; FORMAT={-:-/ absolute / metric / decimal}
; #@! TF.CreationDate,2019-08-24T17:40:02+03:00
; #@! TF.GenerationSoftware,Kicad,Pcbnew,(5.1.2)-1
; #@! TF.FileFunction,Plated,1,2,PTH
FMAT,2
METRIC
T1C0.400
T2C1.000
T3C1.016
T4C2.750
%
G90
G05
T1
X139.065Y-112.395
X139.7Y-104.14
X143.51Y-116.84
X144.78Y-82.55
X144.78Y-124.46
X147.574Y-102.362
X148.082Y-115.824
X151.765Y-76.2
X152.4Y-102.108
X152.654Y-80.772
X153.416Y-76.962
X153.67Y-96.52
X158.496Y-102.108
X159.004Y-80.518
X160.503Y-71.399
X163.06Y-77.224
X163.576Y-75.692
X164.465Y-97.79
X164.592Y-102.108
X165.1Y-125.73
X166.37Y-87.122
X168.91Y-76.2
X171.45Y-101.6
X172.466Y-101.6
X173.355Y-116.205
X173.482Y-101.6
X176.765Y-89.535
X177.165Y-84.455
X178.308Y-102.108
X192.532Y-111.76
X194.056Y-113.284
X198.755Y-109.22
X199.39Y-125.73
T2
X142.24Y-119.38
X142.24Y-121.92
X144.78Y-119.38
X144.78Y-121.92
X147.32Y-119.38
X147.32Y-121.92
X149.86Y-119.38
X149.86Y-121.92
X152.4Y-119.38
X152.4Y-121.92
X154.94Y-119.38
X154.94Y-121.92
X157.48Y-119.38
X157.48Y-121.92
X160.02Y-119.38
X160.02Y-121.92
X162.56Y-119.38
X162.56Y-121.92
X165.1Y-119.38
X165.1Y-121.92
X167.64Y-119.38
X167.64Y-121.92
X170.18Y-119.38
X170.18Y-121.92
X172.72Y-119.38
X172.72Y-121.92
X175.26Y-119.38
X175.26Y-121.92
X177.8Y-119.38
X177.8Y-121.92
X180.34Y-119.38
X180.34Y-121.92
X182.88Y-119.38
X182.88Y-121.92
X185.42Y-119.38
X185.42Y-121.92
X187.96Y-119.38
X187.96Y-121.92
X190.5Y-119.38
X190.5Y-121.92
X187.96Y-83.82
X187.96Y-86.36
X187.96Y-88.9
X187.96Y-91.44
X187.96Y-93.98
X187.96Y-96.52
X190.5Y-83.82
X190.5Y-86.36
X190.5Y-88.9
X190.5Y-91.44
X190.5Y-93.98
X190.5Y-96.52
X134.366Y-107.95
X134.366Y-110.49
X134.366Y-113.03
T3
X142.24Y-109.22
X142.24Y-111.76
X144.78Y-109.22
X144.78Y-111.76
X147.32Y-109.22
X147.32Y-111.76
X149.86Y-109.22
X149.86Y-111.76
X152.4Y-109.22
X152.4Y-111.76
X154.94Y-109.22
X154.94Y-111.76
X157.48Y-109.22
X157.48Y-111.76
X160.02Y-109.22
X160.02Y-111.76
X162.56Y-109.22
X162.56Y-111.76
X165.1Y-109.22
X165.1Y-111.76
X167.64Y-109.22
X167.64Y-111.76
X170.18Y-109.22
X170.18Y-111.76
X172.72Y-109.22
X172.72Y-111.76
X175.26Y-109.22
X175.26Y-111.76
X177.8Y-109.22
X177.8Y-111.76
X180.34Y-109.22
X180.34Y-111.76
X182.88Y-109.22
X182.88Y-111.76
X185.42Y-109.22
X185.42Y-111.76
X187.96Y-109.22
X187.96Y-111.76
X190.5Y-109.22
X190.5Y-111.76
T4
X137.37Y-120.65
X195.37Y-71.65
X137.37Y-71.65
X195.37Y-120.65
T0
M30
