G04 #@! TF.GenerationSoftware,KiCad,Pcbnew,(5.1.2)-1*
G04 #@! TF.CreationDate,2019-08-24T17:39:20+03:00*
G04 #@! TF.ProjectId,de0-nano-exp2,6465302d-6e61-46e6-9f2d-657870322e6b,rev?*
G04 #@! TF.SameCoordinates,Original*
G04 #@! TF.FileFunction,Legend,Top*
G04 #@! TF.FilePolarity,Positive*
%FSLAX46Y46*%
G04 Gerber Fmt 4.6, Leading zero omitted, Abs format (unit mm)*
G04 Created by KiCad (PCBNEW (5.1.2)-1) date 2019-08-24 17:39:20*
%MOMM*%
%LPD*%
G04 APERTURE LIST*
%ADD10C,0.150000*%
%ADD11C,0.152400*%
%ADD12C,0.120000*%
G04 APERTURE END LIST*
D10*
X197302380Y-114751904D02*
X196302380Y-114751904D01*
X196302380Y-114513809D01*
X196350000Y-114370952D01*
X196445238Y-114275714D01*
X196540476Y-114228095D01*
X196730952Y-114180476D01*
X196873809Y-114180476D01*
X197064285Y-114228095D01*
X197159523Y-114275714D01*
X197254761Y-114370952D01*
X197302380Y-114513809D01*
X197302380Y-114751904D01*
X196778571Y-113751904D02*
X196778571Y-113418571D01*
X197302380Y-113275714D02*
X197302380Y-113751904D01*
X196302380Y-113751904D01*
X196302380Y-113275714D01*
X196302380Y-112656666D02*
X196302380Y-112561428D01*
X196350000Y-112466190D01*
X196397619Y-112418571D01*
X196492857Y-112370952D01*
X196683333Y-112323333D01*
X196921428Y-112323333D01*
X197111904Y-112370952D01*
X197207142Y-112418571D01*
X197254761Y-112466190D01*
X197302380Y-112561428D01*
X197302380Y-112656666D01*
X197254761Y-112751904D01*
X197207142Y-112799523D01*
X197111904Y-112847142D01*
X196921428Y-112894761D01*
X196683333Y-112894761D01*
X196492857Y-112847142D01*
X196397619Y-112799523D01*
X196350000Y-112751904D01*
X196302380Y-112656666D01*
X196635714Y-111894761D02*
X197302380Y-111894761D01*
X196730952Y-111894761D02*
X196683333Y-111847142D01*
X196635714Y-111751904D01*
X196635714Y-111609047D01*
X196683333Y-111513809D01*
X196778571Y-111466190D01*
X197302380Y-111466190D01*
X196350000Y-109704285D02*
X196302380Y-109799523D01*
X196302380Y-109942380D01*
X196350000Y-110085238D01*
X196445238Y-110180476D01*
X196540476Y-110228095D01*
X196730952Y-110275714D01*
X196873809Y-110275714D01*
X197064285Y-110228095D01*
X197159523Y-110180476D01*
X197254761Y-110085238D01*
X197302380Y-109942380D01*
X197302380Y-109847142D01*
X197254761Y-109704285D01*
X197207142Y-109656666D01*
X196873809Y-109656666D01*
X196873809Y-109847142D01*
X197302380Y-109228095D02*
X196302380Y-109228095D01*
X196302380Y-108847142D01*
X196350000Y-108751904D01*
X196397619Y-108704285D01*
X196492857Y-108656666D01*
X196635714Y-108656666D01*
X196730952Y-108704285D01*
X196778571Y-108751904D01*
X196826190Y-108847142D01*
X196826190Y-109228095D01*
X197302380Y-108228095D02*
X196302380Y-108228095D01*
X196302380Y-107561428D02*
X196302380Y-107370952D01*
X196350000Y-107275714D01*
X196445238Y-107180476D01*
X196635714Y-107132857D01*
X196969047Y-107132857D01*
X197159523Y-107180476D01*
X197254761Y-107275714D01*
X197302380Y-107370952D01*
X197302380Y-107561428D01*
X197254761Y-107656666D01*
X197159523Y-107751904D01*
X196969047Y-107799523D01*
X196635714Y-107799523D01*
X196445238Y-107751904D01*
X196350000Y-107656666D01*
X196302380Y-107561428D01*
X197302380Y-106180476D02*
X197302380Y-106751904D01*
X197302380Y-106466190D02*
X196302380Y-106466190D01*
X196445238Y-106561428D01*
X196540476Y-106656666D01*
X196588095Y-106751904D01*
X167536761Y-77953523D02*
X167584380Y-77810666D01*
X167584380Y-77572571D01*
X167536761Y-77477333D01*
X167489142Y-77429714D01*
X167393904Y-77382095D01*
X167298666Y-77382095D01*
X167203428Y-77429714D01*
X167155809Y-77477333D01*
X167108190Y-77572571D01*
X167060571Y-77763047D01*
X167012952Y-77858285D01*
X166965333Y-77905904D01*
X166870095Y-77953523D01*
X166774857Y-77953523D01*
X166679619Y-77905904D01*
X166632000Y-77858285D01*
X166584380Y-77763047D01*
X166584380Y-77524952D01*
X166632000Y-77382095D01*
X167536761Y-76572571D02*
X167584380Y-76667809D01*
X167584380Y-76858285D01*
X167536761Y-76953523D01*
X167441523Y-77001142D01*
X167060571Y-77001142D01*
X166965333Y-76953523D01*
X166917714Y-76858285D01*
X166917714Y-76667809D01*
X166965333Y-76572571D01*
X167060571Y-76524952D01*
X167155809Y-76524952D01*
X167251047Y-77001142D01*
X167584380Y-76096380D02*
X166917714Y-76096380D01*
X167108190Y-76096380D02*
X167012952Y-76048761D01*
X166965333Y-76001142D01*
X166917714Y-75905904D01*
X166917714Y-75810666D01*
X167584380Y-75477333D02*
X166917714Y-75477333D01*
X166584380Y-75477333D02*
X166632000Y-75524952D01*
X166679619Y-75477333D01*
X166632000Y-75429714D01*
X166584380Y-75477333D01*
X166679619Y-75477333D01*
X167584380Y-74572571D02*
X167060571Y-74572571D01*
X166965333Y-74620190D01*
X166917714Y-74715428D01*
X166917714Y-74905904D01*
X166965333Y-75001142D01*
X167536761Y-74572571D02*
X167584380Y-74667809D01*
X167584380Y-74905904D01*
X167536761Y-75001142D01*
X167441523Y-75048761D01*
X167346285Y-75048761D01*
X167251047Y-75001142D01*
X167203428Y-74905904D01*
X167203428Y-74667809D01*
X167155809Y-74572571D01*
X167584380Y-73953523D02*
X167536761Y-74048761D01*
X167441523Y-74096380D01*
X166584380Y-74096380D01*
X167489142Y-72239238D02*
X167536761Y-72286857D01*
X167584380Y-72429714D01*
X167584380Y-72524952D01*
X167536761Y-72667809D01*
X167441523Y-72763047D01*
X167346285Y-72810666D01*
X167155809Y-72858285D01*
X167012952Y-72858285D01*
X166822476Y-72810666D01*
X166727238Y-72763047D01*
X166632000Y-72667809D01*
X166584380Y-72524952D01*
X166584380Y-72429714D01*
X166632000Y-72286857D01*
X166679619Y-72239238D01*
X167584380Y-71667809D02*
X167536761Y-71763047D01*
X167489142Y-71810666D01*
X167393904Y-71858285D01*
X167108190Y-71858285D01*
X167012952Y-71810666D01*
X166965333Y-71763047D01*
X166917714Y-71667809D01*
X166917714Y-71524952D01*
X166965333Y-71429714D01*
X167012952Y-71382095D01*
X167108190Y-71334476D01*
X167393904Y-71334476D01*
X167489142Y-71382095D01*
X167536761Y-71429714D01*
X167584380Y-71524952D01*
X167584380Y-71667809D01*
X166917714Y-70905904D02*
X167584380Y-70905904D01*
X167012952Y-70905904D02*
X166965333Y-70858285D01*
X166917714Y-70763047D01*
X166917714Y-70620190D01*
X166965333Y-70524952D01*
X167060571Y-70477333D01*
X167584380Y-70477333D01*
X167536761Y-70048761D02*
X167584380Y-69953523D01*
X167584380Y-69763047D01*
X167536761Y-69667809D01*
X167441523Y-69620190D01*
X167393904Y-69620190D01*
X167298666Y-69667809D01*
X167251047Y-69763047D01*
X167251047Y-69905904D01*
X167203428Y-70001142D01*
X167108190Y-70048761D01*
X167060571Y-70048761D01*
X166965333Y-70001142D01*
X166917714Y-69905904D01*
X166917714Y-69763047D01*
X166965333Y-69667809D01*
X167584380Y-69048761D02*
X167536761Y-69144000D01*
X167489142Y-69191619D01*
X167393904Y-69239238D01*
X167108190Y-69239238D01*
X167012952Y-69191619D01*
X166965333Y-69144000D01*
X166917714Y-69048761D01*
X166917714Y-68905904D01*
X166965333Y-68810666D01*
X167012952Y-68763047D01*
X167108190Y-68715428D01*
X167393904Y-68715428D01*
X167489142Y-68763047D01*
X167536761Y-68810666D01*
X167584380Y-68905904D01*
X167584380Y-69048761D01*
X167584380Y-68144000D02*
X167536761Y-68239238D01*
X167441523Y-68286857D01*
X166584380Y-68286857D01*
X167536761Y-67382095D02*
X167584380Y-67477333D01*
X167584380Y-67667809D01*
X167536761Y-67763047D01*
X167441523Y-67810666D01*
X167060571Y-67810666D01*
X166965333Y-67763047D01*
X166917714Y-67667809D01*
X166917714Y-67477333D01*
X166965333Y-67382095D01*
X167060571Y-67334476D01*
X167155809Y-67334476D01*
X167251047Y-67810666D01*
X194254380Y-94717619D02*
X193254380Y-94717619D01*
X193254380Y-94336666D01*
X193302000Y-94241428D01*
X193349619Y-94193809D01*
X193444857Y-94146190D01*
X193587714Y-94146190D01*
X193682952Y-94193809D01*
X193730571Y-94241428D01*
X193778190Y-94336666D01*
X193778190Y-94717619D01*
X194254380Y-93717619D02*
X193254380Y-93717619D01*
X193968666Y-93384285D01*
X193254380Y-93050952D01*
X194254380Y-93050952D01*
X193254380Y-92384285D02*
X193254380Y-92193809D01*
X193302000Y-92098571D01*
X193397238Y-92003333D01*
X193587714Y-91955714D01*
X193921047Y-91955714D01*
X194111523Y-92003333D01*
X194206761Y-92098571D01*
X194254380Y-92193809D01*
X194254380Y-92384285D01*
X194206761Y-92479523D01*
X194111523Y-92574761D01*
X193921047Y-92622380D01*
X193587714Y-92622380D01*
X193397238Y-92574761D01*
X193302000Y-92479523D01*
X193254380Y-92384285D01*
X194254380Y-91527142D02*
X193254380Y-91527142D01*
X193254380Y-91289047D01*
X193302000Y-91146190D01*
X193397238Y-91050952D01*
X193492476Y-91003333D01*
X193682952Y-90955714D01*
X193825809Y-90955714D01*
X194016285Y-91003333D01*
X194111523Y-91050952D01*
X194206761Y-91146190D01*
X194254380Y-91289047D01*
X194254380Y-91527142D01*
X194254380Y-90527142D02*
X193254380Y-90527142D01*
X194254380Y-89955714D01*
X193254380Y-89955714D01*
X194254380Y-89479523D02*
X193254380Y-89479523D01*
X194159142Y-88431904D02*
X194206761Y-88479523D01*
X194254380Y-88622380D01*
X194254380Y-88717619D01*
X194206761Y-88860476D01*
X194111523Y-88955714D01*
X194016285Y-89003333D01*
X193825809Y-89050952D01*
X193682952Y-89050952D01*
X193492476Y-89003333D01*
X193397238Y-88955714D01*
X193302000Y-88860476D01*
X193254380Y-88717619D01*
X193254380Y-88622380D01*
X193302000Y-88479523D01*
X193349619Y-88431904D01*
X194254380Y-87479523D02*
X194254380Y-88050952D01*
X194254380Y-87765238D02*
X193254380Y-87765238D01*
X193397238Y-87860476D01*
X193492476Y-87955714D01*
X193540095Y-88050952D01*
X193254380Y-86860476D02*
X193254380Y-86765238D01*
X193302000Y-86670000D01*
X193349619Y-86622380D01*
X193444857Y-86574761D01*
X193635333Y-86527142D01*
X193873428Y-86527142D01*
X194063904Y-86574761D01*
X194159142Y-86622380D01*
X194206761Y-86670000D01*
X194254380Y-86765238D01*
X194254380Y-86860476D01*
X194206761Y-86955714D01*
X194159142Y-87003333D01*
X194063904Y-87050952D01*
X193873428Y-87098571D01*
X193635333Y-87098571D01*
X193444857Y-87050952D01*
X193349619Y-87003333D01*
X193302000Y-86955714D01*
X193254380Y-86860476D01*
X193254380Y-85908095D02*
X193254380Y-85812857D01*
X193302000Y-85717619D01*
X193349619Y-85670000D01*
X193444857Y-85622380D01*
X193635333Y-85574761D01*
X193873428Y-85574761D01*
X194063904Y-85622380D01*
X194159142Y-85670000D01*
X194206761Y-85717619D01*
X194254380Y-85812857D01*
X194254380Y-85908095D01*
X194206761Y-86003333D01*
X194159142Y-86050952D01*
X194063904Y-86098571D01*
X193873428Y-86146190D01*
X193635333Y-86146190D01*
X193444857Y-86098571D01*
X193349619Y-86050952D01*
X193302000Y-86003333D01*
X193254380Y-85908095D01*
D11*
X148900726Y-99773316D02*
X148900726Y-98884316D01*
X149239393Y-98884316D01*
X149324060Y-98926650D01*
X149366393Y-98968983D01*
X149408726Y-99053650D01*
X149408726Y-99180650D01*
X149366393Y-99265316D01*
X149324060Y-99307650D01*
X149239393Y-99349983D01*
X148900726Y-99349983D01*
X149789726Y-99773316D02*
X149789726Y-99180650D01*
X149789726Y-98884316D02*
X149747393Y-98926650D01*
X149789726Y-98968983D01*
X149832060Y-98926650D01*
X149789726Y-98884316D01*
X149789726Y-98968983D01*
X150213060Y-99773316D02*
X150213060Y-98884316D01*
X150424726Y-98884316D01*
X150551726Y-98926650D01*
X150636393Y-99011316D01*
X150678726Y-99095983D01*
X150721060Y-99265316D01*
X150721060Y-99392316D01*
X150678726Y-99561650D01*
X150636393Y-99646316D01*
X150551726Y-99730983D01*
X150424726Y-99773316D01*
X150213060Y-99773316D01*
X151102060Y-99773316D02*
X151102060Y-98884316D01*
X151440726Y-98884316D01*
X151525393Y-98926650D01*
X151567726Y-98968983D01*
X151610060Y-99053650D01*
X151610060Y-99180650D01*
X151567726Y-99265316D01*
X151525393Y-99307650D01*
X151440726Y-99349983D01*
X151102060Y-99349983D01*
X151991060Y-99434650D02*
X152668393Y-99434650D01*
X153557393Y-99773316D02*
X153049393Y-99773316D01*
X153303393Y-99773316D02*
X153303393Y-98884316D01*
X153218726Y-99011316D01*
X153134060Y-99095983D01*
X153049393Y-99138316D01*
X154404060Y-99773316D02*
X153896060Y-99773316D01*
X154150060Y-99773316D02*
X154150060Y-98884316D01*
X154065393Y-99011316D01*
X153980726Y-99095983D01*
X153896060Y-99138316D01*
X156139726Y-99180650D02*
X155462393Y-99434650D01*
X156139726Y-99688650D01*
X156563060Y-99434650D02*
X157240393Y-99434650D01*
X157663726Y-99180650D02*
X158341060Y-99434650D01*
X157663726Y-99688650D01*
X159441726Y-99773316D02*
X159441726Y-98884316D01*
X159653393Y-98884316D01*
X159780393Y-98926650D01*
X159865060Y-99011316D01*
X159907393Y-99095983D01*
X159949726Y-99265316D01*
X159949726Y-99392316D01*
X159907393Y-99561650D01*
X159865060Y-99646316D01*
X159780393Y-99730983D01*
X159653393Y-99773316D01*
X159441726Y-99773316D01*
X160330726Y-99307650D02*
X160627060Y-99307650D01*
X160754060Y-99773316D02*
X160330726Y-99773316D01*
X160330726Y-98884316D01*
X160754060Y-98884316D01*
X161304393Y-98884316D02*
X161389060Y-98884316D01*
X161473726Y-98926650D01*
X161516060Y-98968983D01*
X161558393Y-99053650D01*
X161600726Y-99222983D01*
X161600726Y-99434650D01*
X161558393Y-99603983D01*
X161516060Y-99688650D01*
X161473726Y-99730983D01*
X161389060Y-99773316D01*
X161304393Y-99773316D01*
X161219726Y-99730983D01*
X161177393Y-99688650D01*
X161135060Y-99603983D01*
X161092726Y-99434650D01*
X161092726Y-99222983D01*
X161135060Y-99053650D01*
X161177393Y-98968983D01*
X161219726Y-98926650D01*
X161304393Y-98884316D01*
X161981726Y-99434650D02*
X162659060Y-99434650D01*
X163082393Y-99773316D02*
X163082393Y-98884316D01*
X163590393Y-99773316D01*
X163590393Y-98884316D01*
X164394726Y-99773316D02*
X164394726Y-99307650D01*
X164352393Y-99222983D01*
X164267726Y-99180650D01*
X164098393Y-99180650D01*
X164013726Y-99222983D01*
X164394726Y-99730983D02*
X164310060Y-99773316D01*
X164098393Y-99773316D01*
X164013726Y-99730983D01*
X163971393Y-99646316D01*
X163971393Y-99561650D01*
X164013726Y-99476983D01*
X164098393Y-99434650D01*
X164310060Y-99434650D01*
X164394726Y-99392316D01*
X164818060Y-99180650D02*
X164818060Y-99773316D01*
X164818060Y-99265316D02*
X164860393Y-99222983D01*
X164945060Y-99180650D01*
X165072060Y-99180650D01*
X165156726Y-99222983D01*
X165199060Y-99307650D01*
X165199060Y-99773316D01*
X165749393Y-99773316D02*
X165664726Y-99730983D01*
X165622393Y-99688650D01*
X165580060Y-99603983D01*
X165580060Y-99349983D01*
X165622393Y-99265316D01*
X165664726Y-99222983D01*
X165749393Y-99180650D01*
X165876393Y-99180650D01*
X165961060Y-99222983D01*
X166003393Y-99265316D01*
X166045726Y-99349983D01*
X166045726Y-99603983D01*
X166003393Y-99688650D01*
X165961060Y-99730983D01*
X165876393Y-99773316D01*
X165749393Y-99773316D01*
X149281726Y-101259216D02*
X149281726Y-100793550D01*
X149239393Y-100708883D01*
X149154726Y-100666550D01*
X148985393Y-100666550D01*
X148900726Y-100708883D01*
X149281726Y-101216883D02*
X149197060Y-101259216D01*
X148985393Y-101259216D01*
X148900726Y-101216883D01*
X148858393Y-101132216D01*
X148858393Y-101047550D01*
X148900726Y-100962883D01*
X148985393Y-100920550D01*
X149197060Y-100920550D01*
X149281726Y-100878216D01*
X150086060Y-101259216D02*
X150086060Y-100370216D01*
X150086060Y-101216883D02*
X150001393Y-101259216D01*
X149832060Y-101259216D01*
X149747393Y-101216883D01*
X149705060Y-101174550D01*
X149662726Y-101089883D01*
X149662726Y-100835883D01*
X149705060Y-100751216D01*
X149747393Y-100708883D01*
X149832060Y-100666550D01*
X150001393Y-100666550D01*
X150086060Y-100708883D01*
X150890393Y-101259216D02*
X150890393Y-100793550D01*
X150848060Y-100708883D01*
X150763393Y-100666550D01*
X150594060Y-100666550D01*
X150509393Y-100708883D01*
X150890393Y-101216883D02*
X150805726Y-101259216D01*
X150594060Y-101259216D01*
X150509393Y-101216883D01*
X150467060Y-101132216D01*
X150467060Y-101047550D01*
X150509393Y-100962883D01*
X150594060Y-100920550D01*
X150805726Y-100920550D01*
X150890393Y-100878216D01*
X151313726Y-100666550D02*
X151313726Y-101555550D01*
X151313726Y-100708883D02*
X151398393Y-100666550D01*
X151567726Y-100666550D01*
X151652393Y-100708883D01*
X151694726Y-100751216D01*
X151737060Y-100835883D01*
X151737060Y-101089883D01*
X151694726Y-101174550D01*
X151652393Y-101216883D01*
X151567726Y-101259216D01*
X151398393Y-101259216D01*
X151313726Y-101216883D01*
X151991060Y-100666550D02*
X152329726Y-100666550D01*
X152118060Y-100370216D02*
X152118060Y-101132216D01*
X152160393Y-101216883D01*
X152245060Y-101259216D01*
X152329726Y-101259216D01*
X152964726Y-101216883D02*
X152880060Y-101259216D01*
X152710726Y-101259216D01*
X152626060Y-101216883D01*
X152583726Y-101132216D01*
X152583726Y-100793550D01*
X152626060Y-100708883D01*
X152710726Y-100666550D01*
X152880060Y-100666550D01*
X152964726Y-100708883D01*
X153007060Y-100793550D01*
X153007060Y-100878216D01*
X152583726Y-100962883D01*
X153388060Y-101259216D02*
X153388060Y-100666550D01*
X153388060Y-100835883D02*
X153430393Y-100751216D01*
X153472726Y-100708883D01*
X153557393Y-100666550D01*
X153642060Y-100666550D01*
X154615726Y-101259216D02*
X154615726Y-100370216D01*
X154615726Y-100708883D02*
X154700393Y-100666550D01*
X154869726Y-100666550D01*
X154954393Y-100708883D01*
X154996726Y-100751216D01*
X155039060Y-100835883D01*
X155039060Y-101089883D01*
X154996726Y-101174550D01*
X154954393Y-101216883D01*
X154869726Y-101259216D01*
X154700393Y-101259216D01*
X154615726Y-101216883D01*
X155547060Y-101259216D02*
X155462393Y-101216883D01*
X155420060Y-101174550D01*
X155377726Y-101089883D01*
X155377726Y-100835883D01*
X155420060Y-100751216D01*
X155462393Y-100708883D01*
X155547060Y-100666550D01*
X155674060Y-100666550D01*
X155758726Y-100708883D01*
X155801060Y-100751216D01*
X155843393Y-100835883D01*
X155843393Y-101089883D01*
X155801060Y-101174550D01*
X155758726Y-101216883D01*
X155674060Y-101259216D01*
X155547060Y-101259216D01*
X156605393Y-101259216D02*
X156605393Y-100793550D01*
X156563060Y-100708883D01*
X156478393Y-100666550D01*
X156309060Y-100666550D01*
X156224393Y-100708883D01*
X156605393Y-101216883D02*
X156520726Y-101259216D01*
X156309060Y-101259216D01*
X156224393Y-101216883D01*
X156182060Y-101132216D01*
X156182060Y-101047550D01*
X156224393Y-100962883D01*
X156309060Y-100920550D01*
X156520726Y-100920550D01*
X156605393Y-100878216D01*
X157028726Y-101259216D02*
X157028726Y-100666550D01*
X157028726Y-100835883D02*
X157071060Y-100751216D01*
X157113393Y-100708883D01*
X157198060Y-100666550D01*
X157282726Y-100666550D01*
X157960060Y-101259216D02*
X157960060Y-100370216D01*
X157960060Y-101216883D02*
X157875393Y-101259216D01*
X157706060Y-101259216D01*
X157621393Y-101216883D01*
X157579060Y-101174550D01*
X157536726Y-101089883D01*
X157536726Y-100835883D01*
X157579060Y-100751216D01*
X157621393Y-100708883D01*
X157706060Y-100666550D01*
X157875393Y-100666550D01*
X157960060Y-100708883D01*
X148900726Y-104231016D02*
X148900726Y-103342016D01*
X149281726Y-104231016D02*
X149281726Y-103765350D01*
X149239393Y-103680683D01*
X149154726Y-103638350D01*
X149027726Y-103638350D01*
X148943060Y-103680683D01*
X148900726Y-103723016D01*
X149578060Y-103638350D02*
X149916726Y-103638350D01*
X149705060Y-103342016D02*
X149705060Y-104104016D01*
X149747393Y-104188683D01*
X149832060Y-104231016D01*
X149916726Y-104231016D01*
X150086060Y-103638350D02*
X150424726Y-103638350D01*
X150213060Y-103342016D02*
X150213060Y-104104016D01*
X150255393Y-104188683D01*
X150340060Y-104231016D01*
X150424726Y-104231016D01*
X150721060Y-103638350D02*
X150721060Y-104527350D01*
X150721060Y-103680683D02*
X150805726Y-103638350D01*
X150975060Y-103638350D01*
X151059726Y-103680683D01*
X151102060Y-103723016D01*
X151144393Y-103807683D01*
X151144393Y-104061683D01*
X151102060Y-104146350D01*
X151059726Y-104188683D01*
X150975060Y-104231016D01*
X150805726Y-104231016D01*
X150721060Y-104188683D01*
X151483060Y-104188683D02*
X151567726Y-104231016D01*
X151737060Y-104231016D01*
X151821726Y-104188683D01*
X151864060Y-104104016D01*
X151864060Y-104061683D01*
X151821726Y-103977016D01*
X151737060Y-103934683D01*
X151610060Y-103934683D01*
X151525393Y-103892350D01*
X151483060Y-103807683D01*
X151483060Y-103765350D01*
X151525393Y-103680683D01*
X151610060Y-103638350D01*
X151737060Y-103638350D01*
X151821726Y-103680683D01*
X152245060Y-104146350D02*
X152287393Y-104188683D01*
X152245060Y-104231016D01*
X152202726Y-104188683D01*
X152245060Y-104146350D01*
X152245060Y-104231016D01*
X152245060Y-103680683D02*
X152287393Y-103723016D01*
X152245060Y-103765350D01*
X152202726Y-103723016D01*
X152245060Y-103680683D01*
X152245060Y-103765350D01*
X153303393Y-103299683D02*
X152541393Y-104442683D01*
X154234726Y-103299683D02*
X153472726Y-104442683D01*
X154912060Y-103638350D02*
X154912060Y-104358016D01*
X154869726Y-104442683D01*
X154827393Y-104485016D01*
X154742726Y-104527350D01*
X154615726Y-104527350D01*
X154531060Y-104485016D01*
X154912060Y-104188683D02*
X154827393Y-104231016D01*
X154658060Y-104231016D01*
X154573393Y-104188683D01*
X154531060Y-104146350D01*
X154488726Y-104061683D01*
X154488726Y-103807683D01*
X154531060Y-103723016D01*
X154573393Y-103680683D01*
X154658060Y-103638350D01*
X154827393Y-103638350D01*
X154912060Y-103680683D01*
X155335393Y-104231016D02*
X155335393Y-103638350D01*
X155335393Y-103342016D02*
X155293060Y-103384350D01*
X155335393Y-103426683D01*
X155377726Y-103384350D01*
X155335393Y-103342016D01*
X155335393Y-103426683D01*
X155631726Y-103638350D02*
X155970393Y-103638350D01*
X155758726Y-103342016D02*
X155758726Y-104104016D01*
X155801060Y-104188683D01*
X155885726Y-104231016D01*
X155970393Y-104231016D01*
X156266726Y-104231016D02*
X156266726Y-103342016D01*
X156647726Y-104231016D02*
X156647726Y-103765350D01*
X156605393Y-103680683D01*
X156520726Y-103638350D01*
X156393726Y-103638350D01*
X156309060Y-103680683D01*
X156266726Y-103723016D01*
X157452060Y-103638350D02*
X157452060Y-104231016D01*
X157071060Y-103638350D02*
X157071060Y-104104016D01*
X157113393Y-104188683D01*
X157198060Y-104231016D01*
X157325060Y-104231016D01*
X157409726Y-104188683D01*
X157452060Y-104146350D01*
X157875393Y-104231016D02*
X157875393Y-103342016D01*
X157875393Y-103680683D02*
X157960060Y-103638350D01*
X158129393Y-103638350D01*
X158214060Y-103680683D01*
X158256393Y-103723016D01*
X158298726Y-103807683D01*
X158298726Y-104061683D01*
X158256393Y-104146350D01*
X158214060Y-104188683D01*
X158129393Y-104231016D01*
X157960060Y-104231016D01*
X157875393Y-104188683D01*
X158679726Y-104146350D02*
X158722060Y-104188683D01*
X158679726Y-104231016D01*
X158637393Y-104188683D01*
X158679726Y-104146350D01*
X158679726Y-104231016D01*
X159484060Y-104188683D02*
X159399393Y-104231016D01*
X159230060Y-104231016D01*
X159145393Y-104188683D01*
X159103060Y-104146350D01*
X159060726Y-104061683D01*
X159060726Y-103807683D01*
X159103060Y-103723016D01*
X159145393Y-103680683D01*
X159230060Y-103638350D01*
X159399393Y-103638350D01*
X159484060Y-103680683D01*
X159992060Y-104231016D02*
X159907393Y-104188683D01*
X159865060Y-104146350D01*
X159822726Y-104061683D01*
X159822726Y-103807683D01*
X159865060Y-103723016D01*
X159907393Y-103680683D01*
X159992060Y-103638350D01*
X160119060Y-103638350D01*
X160203726Y-103680683D01*
X160246060Y-103723016D01*
X160288393Y-103807683D01*
X160288393Y-104061683D01*
X160246060Y-104146350D01*
X160203726Y-104188683D01*
X160119060Y-104231016D01*
X159992060Y-104231016D01*
X160669393Y-104231016D02*
X160669393Y-103638350D01*
X160669393Y-103723016D02*
X160711726Y-103680683D01*
X160796393Y-103638350D01*
X160923393Y-103638350D01*
X161008060Y-103680683D01*
X161050393Y-103765350D01*
X161050393Y-104231016D01*
X161050393Y-103765350D02*
X161092726Y-103680683D01*
X161177393Y-103638350D01*
X161304393Y-103638350D01*
X161389060Y-103680683D01*
X161431393Y-103765350D01*
X161431393Y-104231016D01*
X162489726Y-103299683D02*
X161727726Y-104442683D01*
X163167060Y-104231016D02*
X163167060Y-103342016D01*
X163167060Y-104188683D02*
X163082393Y-104231016D01*
X162913060Y-104231016D01*
X162828393Y-104188683D01*
X162786060Y-104146350D01*
X162743726Y-104061683D01*
X162743726Y-103807683D01*
X162786060Y-103723016D01*
X162828393Y-103680683D01*
X162913060Y-103638350D01*
X163082393Y-103638350D01*
X163167060Y-103680683D01*
X163929060Y-104188683D02*
X163844393Y-104231016D01*
X163675060Y-104231016D01*
X163590393Y-104188683D01*
X163548060Y-104104016D01*
X163548060Y-103765350D01*
X163590393Y-103680683D01*
X163675060Y-103638350D01*
X163844393Y-103638350D01*
X163929060Y-103680683D01*
X163971393Y-103765350D01*
X163971393Y-103850016D01*
X163548060Y-103934683D01*
X164310060Y-104188683D02*
X164394726Y-104231016D01*
X164564060Y-104231016D01*
X164648726Y-104188683D01*
X164691060Y-104104016D01*
X164691060Y-104061683D01*
X164648726Y-103977016D01*
X164564060Y-103934683D01*
X164437060Y-103934683D01*
X164352393Y-103892350D01*
X164310060Y-103807683D01*
X164310060Y-103765350D01*
X164352393Y-103680683D01*
X164437060Y-103638350D01*
X164564060Y-103638350D01*
X164648726Y-103680683D01*
X165453060Y-104231016D02*
X165453060Y-103765350D01*
X165410726Y-103680683D01*
X165326060Y-103638350D01*
X165156726Y-103638350D01*
X165072060Y-103680683D01*
X165453060Y-104188683D02*
X165368393Y-104231016D01*
X165156726Y-104231016D01*
X165072060Y-104188683D01*
X165029726Y-104104016D01*
X165029726Y-104019350D01*
X165072060Y-103934683D01*
X165156726Y-103892350D01*
X165368393Y-103892350D01*
X165453060Y-103850016D01*
X165834060Y-104188683D02*
X165918726Y-104231016D01*
X166088060Y-104231016D01*
X166172726Y-104188683D01*
X166215060Y-104104016D01*
X166215060Y-104061683D01*
X166172726Y-103977016D01*
X166088060Y-103934683D01*
X165961060Y-103934683D01*
X165876393Y-103892350D01*
X165834060Y-103807683D01*
X165834060Y-103765350D01*
X165876393Y-103680683D01*
X165961060Y-103638350D01*
X166088060Y-103638350D01*
X166172726Y-103680683D01*
X166469060Y-103638350D02*
X166807726Y-103638350D01*
X166596060Y-103342016D02*
X166596060Y-104104016D01*
X166638393Y-104188683D01*
X166723060Y-104231016D01*
X166807726Y-104231016D01*
X167442726Y-104188683D02*
X167358060Y-104231016D01*
X167188726Y-104231016D01*
X167104060Y-104188683D01*
X167061726Y-104104016D01*
X167061726Y-103765350D01*
X167104060Y-103680683D01*
X167188726Y-103638350D01*
X167358060Y-103638350D01*
X167442726Y-103680683D01*
X167485060Y-103765350D01*
X167485060Y-103850016D01*
X167061726Y-103934683D01*
X167866060Y-104231016D02*
X167866060Y-103638350D01*
X167866060Y-103807683D02*
X167908393Y-103723016D01*
X167950726Y-103680683D01*
X168035393Y-103638350D01*
X168120060Y-103638350D01*
X169051393Y-103299683D02*
X168289393Y-104442683D01*
X169728726Y-104231016D02*
X169728726Y-103342016D01*
X169728726Y-104188683D02*
X169644060Y-104231016D01*
X169474726Y-104231016D01*
X169390060Y-104188683D01*
X169347726Y-104146350D01*
X169305393Y-104061683D01*
X169305393Y-103807683D01*
X169347726Y-103723016D01*
X169390060Y-103680683D01*
X169474726Y-103638350D01*
X169644060Y-103638350D01*
X169728726Y-103680683D01*
X170490726Y-104188683D02*
X170406060Y-104231016D01*
X170236726Y-104231016D01*
X170152060Y-104188683D01*
X170109726Y-104104016D01*
X170109726Y-103765350D01*
X170152060Y-103680683D01*
X170236726Y-103638350D01*
X170406060Y-103638350D01*
X170490726Y-103680683D01*
X170533060Y-103765350D01*
X170533060Y-103850016D01*
X170109726Y-103934683D01*
X171083393Y-103342016D02*
X171168060Y-103342016D01*
X171252726Y-103384350D01*
X171295060Y-103426683D01*
X171337393Y-103511350D01*
X171379726Y-103680683D01*
X171379726Y-103892350D01*
X171337393Y-104061683D01*
X171295060Y-104146350D01*
X171252726Y-104188683D01*
X171168060Y-104231016D01*
X171083393Y-104231016D01*
X170998726Y-104188683D01*
X170956393Y-104146350D01*
X170914060Y-104061683D01*
X170871726Y-103892350D01*
X170871726Y-103680683D01*
X170914060Y-103511350D01*
X170956393Y-103426683D01*
X170998726Y-103384350D01*
X171083393Y-103342016D01*
X171760726Y-103638350D02*
X171760726Y-104231016D01*
X171760726Y-103723016D02*
X171803060Y-103680683D01*
X171887726Y-103638350D01*
X172014726Y-103638350D01*
X172099393Y-103680683D01*
X172141726Y-103765350D01*
X172141726Y-104231016D01*
X172565060Y-103892350D02*
X173242393Y-103892350D01*
X173665726Y-103638350D02*
X173665726Y-104527350D01*
X173665726Y-103680683D02*
X173750393Y-103638350D01*
X173919726Y-103638350D01*
X174004393Y-103680683D01*
X174046726Y-103723016D01*
X174089060Y-103807683D01*
X174089060Y-104061683D01*
X174046726Y-104146350D01*
X174004393Y-104188683D01*
X173919726Y-104231016D01*
X173750393Y-104231016D01*
X173665726Y-104188683D01*
X174470060Y-104231016D02*
X174470060Y-103638350D01*
X174470060Y-103342016D02*
X174427726Y-103384350D01*
X174470060Y-103426683D01*
X174512393Y-103384350D01*
X174470060Y-103342016D01*
X174470060Y-103426683D01*
X175274393Y-104231016D02*
X175274393Y-103342016D01*
X175274393Y-104188683D02*
X175189726Y-104231016D01*
X175020393Y-104231016D01*
X174935726Y-104188683D01*
X174893393Y-104146350D01*
X174851060Y-104061683D01*
X174851060Y-103807683D01*
X174893393Y-103723016D01*
X174935726Y-103680683D01*
X175020393Y-103638350D01*
X175189726Y-103638350D01*
X175274393Y-103680683D01*
X175697726Y-103638350D02*
X175697726Y-104527350D01*
X175697726Y-103680683D02*
X175782393Y-103638350D01*
X175951726Y-103638350D01*
X176036393Y-103680683D01*
X176078726Y-103723016D01*
X176121060Y-103807683D01*
X176121060Y-104061683D01*
X176078726Y-104146350D01*
X176036393Y-104188683D01*
X175951726Y-104231016D01*
X175782393Y-104231016D01*
X175697726Y-104188683D01*
X176967726Y-104231016D02*
X176459726Y-104231016D01*
X176713726Y-104231016D02*
X176713726Y-103342016D01*
X176629060Y-103469016D01*
X176544393Y-103553683D01*
X176459726Y-103596016D01*
X177814393Y-104231016D02*
X177306393Y-104231016D01*
X177560393Y-104231016D02*
X177560393Y-103342016D01*
X177475726Y-103469016D01*
X177391060Y-103553683D01*
X177306393Y-103596016D01*
X178195393Y-103892350D02*
X178872726Y-103892350D01*
X179677060Y-104231016D02*
X179677060Y-103765350D01*
X179634726Y-103680683D01*
X179550060Y-103638350D01*
X179380726Y-103638350D01*
X179296060Y-103680683D01*
X179677060Y-104188683D02*
X179592393Y-104231016D01*
X179380726Y-104231016D01*
X179296060Y-104188683D01*
X179253726Y-104104016D01*
X179253726Y-104019350D01*
X179296060Y-103934683D01*
X179380726Y-103892350D01*
X179592393Y-103892350D01*
X179677060Y-103850016D01*
X180481393Y-104231016D02*
X180481393Y-103342016D01*
X180481393Y-104188683D02*
X180396726Y-104231016D01*
X180227393Y-104231016D01*
X180142726Y-104188683D01*
X180100393Y-104146350D01*
X180058060Y-104061683D01*
X180058060Y-103807683D01*
X180100393Y-103723016D01*
X180142726Y-103680683D01*
X180227393Y-103638350D01*
X180396726Y-103638350D01*
X180481393Y-103680683D01*
X181285726Y-104231016D02*
X181285726Y-103765350D01*
X181243393Y-103680683D01*
X181158726Y-103638350D01*
X180989393Y-103638350D01*
X180904726Y-103680683D01*
X181285726Y-104188683D02*
X181201060Y-104231016D01*
X180989393Y-104231016D01*
X180904726Y-104188683D01*
X180862393Y-104104016D01*
X180862393Y-104019350D01*
X180904726Y-103934683D01*
X180989393Y-103892350D01*
X181201060Y-103892350D01*
X181285726Y-103850016D01*
X181709060Y-103638350D02*
X181709060Y-104527350D01*
X181709060Y-103680683D02*
X181793726Y-103638350D01*
X181963060Y-103638350D01*
X182047726Y-103680683D01*
X182090060Y-103723016D01*
X182132393Y-103807683D01*
X182132393Y-104061683D01*
X182090060Y-104146350D01*
X182047726Y-104188683D01*
X181963060Y-104231016D01*
X181793726Y-104231016D01*
X181709060Y-104188683D01*
X182386393Y-103638350D02*
X182725060Y-103638350D01*
X182513393Y-103342016D02*
X182513393Y-104104016D01*
X182555726Y-104188683D01*
X182640393Y-104231016D01*
X182725060Y-104231016D01*
X183360060Y-104188683D02*
X183275393Y-104231016D01*
X183106060Y-104231016D01*
X183021393Y-104188683D01*
X182979060Y-104104016D01*
X182979060Y-103765350D01*
X183021393Y-103680683D01*
X183106060Y-103638350D01*
X183275393Y-103638350D01*
X183360060Y-103680683D01*
X183402393Y-103765350D01*
X183402393Y-103850016D01*
X182979060Y-103934683D01*
X183783393Y-104231016D02*
X183783393Y-103638350D01*
X183783393Y-103807683D02*
X183825726Y-103723016D01*
X183868060Y-103680683D01*
X183952726Y-103638350D01*
X184037393Y-103638350D01*
X184968726Y-103299683D02*
X184206726Y-104442683D01*
D10*
X131320000Y-86630000D02*
X131320000Y-93980000D01*
X131320000Y-93980000D02*
X131270000Y-95330000D01*
X131270000Y-95330000D02*
X131120000Y-96480000D01*
X131120000Y-96480000D02*
X130920000Y-97580000D01*
X130920000Y-97580000D02*
X130620000Y-98630000D01*
X144620000Y-96780000D02*
X145920000Y-96780000D01*
X136420000Y-86630000D02*
X143620000Y-86630000D01*
X133620000Y-86630000D02*
X131320000Y-86630000D01*
X130620000Y-98630000D02*
X130620000Y-101330000D01*
X130620000Y-101330000D02*
X133620000Y-101330000D01*
X143620000Y-101330000D02*
X136420000Y-101330000D01*
X144020000Y-96330000D02*
X144020000Y-96030000D01*
X144020000Y-96030000D02*
X143720000Y-96030000D01*
X143720000Y-96030000D02*
X143720000Y-96330000D01*
X143720000Y-96330000D02*
X144020000Y-96330000D01*
X144620000Y-96780000D02*
X144620000Y-99780000D01*
X165439000Y-85683000D02*
X164689000Y-85683000D01*
X160189000Y-80433000D02*
X160939000Y-80433000D01*
X160189000Y-85683000D02*
X160939000Y-85683000D01*
X165439000Y-80433000D02*
X165439000Y-81183000D01*
X160189000Y-80433000D02*
X160189000Y-81183000D01*
X160189000Y-85683000D02*
X160189000Y-84933000D01*
X165439000Y-85683000D02*
X165439000Y-84933000D01*
D12*
X160047252Y-78688000D02*
X159524748Y-78688000D01*
X160047252Y-77268000D02*
X159524748Y-77268000D01*
X156237252Y-82348000D02*
X155714748Y-82348000D01*
X156237252Y-83768000D02*
X155714748Y-83768000D01*
X156197252Y-81863000D02*
X155674748Y-81863000D01*
X156197252Y-80443000D02*
X155674748Y-80443000D01*
X150824000Y-92082252D02*
X150824000Y-91559748D01*
X149404000Y-92082252D02*
X149404000Y-91559748D01*
X135696000Y-106620000D02*
X133036000Y-106620000D01*
X135696000Y-111760000D02*
X135696000Y-106620000D01*
X133036000Y-111760000D02*
X133036000Y-106620000D01*
X135696000Y-111760000D02*
X133036000Y-111760000D01*
X135696000Y-113030000D02*
X135696000Y-114360000D01*
X135696000Y-114360000D02*
X134366000Y-114360000D01*
X136890000Y-105815000D02*
X195850000Y-105815000D01*
X195850000Y-105815000D02*
X195850000Y-115165000D01*
X195850000Y-115165000D02*
X136890000Y-115165000D01*
X136890000Y-115165000D02*
X136890000Y-105815000D01*
X136640000Y-115415000D02*
X139180000Y-115415000D01*
X136640000Y-115415000D02*
X136640000Y-112875000D01*
X156110000Y-65210000D02*
X163930000Y-65210000D01*
X162130000Y-74530000D02*
X162130000Y-74960000D01*
X156110000Y-65210000D02*
X156110000Y-67160000D01*
X156110000Y-69380000D02*
X156110000Y-72610000D01*
X157910000Y-74530000D02*
X156830000Y-74530000D01*
X163210000Y-74530000D02*
X162130000Y-74530000D01*
X163930000Y-69380000D02*
X163930000Y-72610000D01*
X163930000Y-65210000D02*
X163930000Y-67160000D01*
X155694748Y-84253000D02*
X156217252Y-84253000D01*
X155694748Y-85673000D02*
X156217252Y-85673000D01*
X186630000Y-97850000D02*
X191830000Y-97850000D01*
X186630000Y-85090000D02*
X186630000Y-97850000D01*
X191830000Y-82490000D02*
X191830000Y-97850000D01*
X186630000Y-85090000D02*
X189230000Y-85090000D01*
X189230000Y-85090000D02*
X189230000Y-82490000D01*
X189230000Y-82490000D02*
X191830000Y-82490000D01*
X186630000Y-83820000D02*
X186630000Y-82490000D01*
X186630000Y-82490000D02*
X187960000Y-82490000D01*
D10*
X162052095Y-87336380D02*
X162052095Y-88145904D01*
X162099714Y-88241142D01*
X162147333Y-88288761D01*
X162242571Y-88336380D01*
X162433047Y-88336380D01*
X162528285Y-88288761D01*
X162575904Y-88241142D01*
X162623523Y-88145904D01*
X162623523Y-87336380D01*
X163623523Y-88336380D02*
X163052095Y-88336380D01*
X163337809Y-88336380D02*
X163337809Y-87336380D01*
X163242571Y-87479238D01*
X163147333Y-87574476D01*
X163052095Y-87622095D01*
X157583142Y-78144666D02*
X157630761Y-78192285D01*
X157678380Y-78335142D01*
X157678380Y-78430380D01*
X157630761Y-78573238D01*
X157535523Y-78668476D01*
X157440285Y-78716095D01*
X157249809Y-78763714D01*
X157106952Y-78763714D01*
X156916476Y-78716095D01*
X156821238Y-78668476D01*
X156726000Y-78573238D01*
X156678380Y-78430380D01*
X156678380Y-78335142D01*
X156726000Y-78192285D01*
X156773619Y-78144666D01*
X157678380Y-77192285D02*
X157678380Y-77763714D01*
X157678380Y-77478000D02*
X156678380Y-77478000D01*
X156821238Y-77573238D01*
X156916476Y-77668476D01*
X156964095Y-77763714D01*
X152995333Y-83415142D02*
X152947714Y-83462761D01*
X152804857Y-83510380D01*
X152709619Y-83510380D01*
X152566761Y-83462761D01*
X152471523Y-83367523D01*
X152423904Y-83272285D01*
X152376285Y-83081809D01*
X152376285Y-82938952D01*
X152423904Y-82748476D01*
X152471523Y-82653238D01*
X152566761Y-82558000D01*
X152709619Y-82510380D01*
X152804857Y-82510380D01*
X152947714Y-82558000D01*
X152995333Y-82605619D01*
X153376285Y-82605619D02*
X153423904Y-82558000D01*
X153519142Y-82510380D01*
X153757238Y-82510380D01*
X153852476Y-82558000D01*
X153900095Y-82605619D01*
X153947714Y-82700857D01*
X153947714Y-82796095D01*
X153900095Y-82938952D01*
X153328666Y-83510380D01*
X153947714Y-83510380D01*
X152995333Y-81510142D02*
X152947714Y-81557761D01*
X152804857Y-81605380D01*
X152709619Y-81605380D01*
X152566761Y-81557761D01*
X152471523Y-81462523D01*
X152423904Y-81367285D01*
X152376285Y-81176809D01*
X152376285Y-81033952D01*
X152423904Y-80843476D01*
X152471523Y-80748238D01*
X152566761Y-80653000D01*
X152709619Y-80605380D01*
X152804857Y-80605380D01*
X152947714Y-80653000D01*
X152995333Y-80700619D01*
X153328666Y-80605380D02*
X153947714Y-80605380D01*
X153614380Y-80986333D01*
X153757238Y-80986333D01*
X153852476Y-81033952D01*
X153900095Y-81081571D01*
X153947714Y-81176809D01*
X153947714Y-81414904D01*
X153900095Y-81510142D01*
X153852476Y-81557761D01*
X153757238Y-81605380D01*
X153471523Y-81605380D01*
X153376285Y-81557761D01*
X153328666Y-81510142D01*
X148821142Y-91987666D02*
X148868761Y-92035285D01*
X148916380Y-92178142D01*
X148916380Y-92273380D01*
X148868761Y-92416238D01*
X148773523Y-92511476D01*
X148678285Y-92559095D01*
X148487809Y-92606714D01*
X148344952Y-92606714D01*
X148154476Y-92559095D01*
X148059238Y-92511476D01*
X147964000Y-92416238D01*
X147916380Y-92273380D01*
X147916380Y-92178142D01*
X147964000Y-92035285D01*
X148011619Y-91987666D01*
X148249714Y-91130523D02*
X148916380Y-91130523D01*
X147868761Y-91368619D02*
X148583047Y-91606714D01*
X148583047Y-90987666D01*
X134032666Y-105116380D02*
X134032666Y-105830666D01*
X133985047Y-105973523D01*
X133889809Y-106068761D01*
X133746952Y-106116380D01*
X133651714Y-106116380D01*
X135032666Y-106116380D02*
X134461238Y-106116380D01*
X134746952Y-106116380D02*
X134746952Y-105116380D01*
X134651714Y-105259238D01*
X134556476Y-105354476D01*
X134461238Y-105402095D01*
X137588666Y-104354380D02*
X137588666Y-105068666D01*
X137541047Y-105211523D01*
X137445809Y-105306761D01*
X137302952Y-105354380D01*
X137207714Y-105354380D01*
X138017238Y-104449619D02*
X138064857Y-104402000D01*
X138160095Y-104354380D01*
X138398190Y-104354380D01*
X138493428Y-104402000D01*
X138541047Y-104449619D01*
X138588666Y-104544857D01*
X138588666Y-104640095D01*
X138541047Y-104782952D01*
X137969619Y-105354380D01*
X138588666Y-105354380D01*
X153884380Y-71199333D02*
X154598666Y-71199333D01*
X154741523Y-71246952D01*
X154836761Y-71342190D01*
X154884380Y-71485047D01*
X154884380Y-71580285D01*
X153884380Y-70818380D02*
X153884380Y-70199333D01*
X154265333Y-70532666D01*
X154265333Y-70389809D01*
X154312952Y-70294571D01*
X154360571Y-70246952D01*
X154455809Y-70199333D01*
X154693904Y-70199333D01*
X154789142Y-70246952D01*
X154836761Y-70294571D01*
X154884380Y-70389809D01*
X154884380Y-70675523D01*
X154836761Y-70770761D01*
X154789142Y-70818380D01*
X152995333Y-85415380D02*
X152662000Y-84939190D01*
X152423904Y-85415380D02*
X152423904Y-84415380D01*
X152804857Y-84415380D01*
X152900095Y-84463000D01*
X152947714Y-84510619D01*
X152995333Y-84605857D01*
X152995333Y-84748714D01*
X152947714Y-84843952D01*
X152900095Y-84891571D01*
X152804857Y-84939190D01*
X152423904Y-84939190D01*
X153947714Y-85415380D02*
X153376285Y-85415380D01*
X153662000Y-85415380D02*
X153662000Y-84415380D01*
X153566761Y-84558238D01*
X153471523Y-84653476D01*
X153376285Y-84701095D01*
X188896666Y-80942380D02*
X188896666Y-81656666D01*
X188849047Y-81799523D01*
X188753809Y-81894761D01*
X188610952Y-81942380D01*
X188515714Y-81942380D01*
X189849047Y-80942380D02*
X189372857Y-80942380D01*
X189325238Y-81418571D01*
X189372857Y-81370952D01*
X189468095Y-81323333D01*
X189706190Y-81323333D01*
X189801428Y-81370952D01*
X189849047Y-81418571D01*
X189896666Y-81513809D01*
X189896666Y-81751904D01*
X189849047Y-81847142D01*
X189801428Y-81894761D01*
X189706190Y-81942380D01*
X189468095Y-81942380D01*
X189372857Y-81894761D01*
X189325238Y-81847142D01*
M02*
